<svg xmlns="http://www.w3.org/2000/svg" viewBox="0 0 35.5 32.9" style="enable-background:new 0 0 35.5 32.9" xml:space="preserve"><path d="M4.3 2.3h28v15.8h-1.4c-.4 0-.7.1-1 .3v-.3h-2.1c-.3 0-.7.1-1 .3v-.3H23v.3c-.3-.2-.7-.3-1.1-.3h-2.5v.3c-.3-.2-.7-.3-1.1-.3h-2.8l-.7.7-.6-.7H10v4.8h4.2l.7-.7.6.7h2.6v-1.1h.2c.4 0 .8 0 1.1-.2v1.3h2.1v-1.2h.1c.1 0 .2 0 .2.2V23h6.4c.4 0 .7-.1 1.1-.3v.3h2c.4 0 .8-.1 1.1-.2v8.7h-28V17h1.4l.3-.8h.7l.3.8h2.7v-.6l.2.6h1.4l.2-.6v.6h6.6v-1.3h.1c.1 0 .1 0 .1.2V17h3.4v-.3c.4.2.8.3 1.3.3h1.4l.3-.8h.7l.3.8h2.7v-.7l.4.7h2.2v-4.7h-2.2v.6l-.3-.6h-2.2v.6l-.3-.6h-3c-.4 0-.9.1-1.3.3v-.3h-2.1v.3c-.3-.2-.6-.3-.9-.3h-7.6l-.5 1.2-.5-1.2H7.8v.5l-.3-.6h-2l-1 2.3V2.3h-.2zm14.1 10.6c.3 0 .6 0 .9.2.3.2.4.5.4.8 0 .4-.2.7-.6.9.2.1.3.2.4.3.1.2.2.4.2.6v.6h-.8v-.4c0-.2 0-.5-.1-.7-.2-.1-.4-.2-.6-.1h-.8v1.2h-.8v-3.4h1.8zm10.8 3.4h1.1V13h-.8v2.3l-1.4-2.4h-1.2v3.2l-1.3-3.2h-1.2l-1.1 2.7H23c-.2 0-.4 0-.5-.2-.2-.2-.2-.5-.2-.8s0-.5.2-.8c.2-.1.4-.2.6-.2h.8v-.7h-.8c-.4 0-.9.1-1.2.4-.6.8-.6 1.8 0 2.6.3.3.7.4 1.2.4h.9l.3-.7h1.6l.3.7h1.6v-2.5c-.1 0 1.4 2.5 1.4 2.5zM16 15.6h-1.8V15H16v-.7h-1.8v-.7H16v-.7h-2.6v3.4H16v-.7zm-4.5-2.7h1.3v3.4H12v-2.6l-1.2 2.7h-.7l-1.2-2.7v2.6H7.3l-.3-.7H5.3l-.3.7h-.8l1.4-3.4h1.2l1.3 3.2v-3.2h1.3l1 2.3 1.1-2.3zm9.5 0h-.8v3.4h.8v-3.4zm-15.2 2 .6-1.3.5 1.3H5.8zm19.7 0-.5-1.3-.5 1.3h1zm-7.2-.5c.1 0 .3 0 .4-.1s.2-.2.2-.3 0-.2-.2-.3c-.1 0-.3-.1-.4-.1h-1v.7h1v.1zm-.1 4.4h-2.5l-1 1.1-.9-1.1h-3.2v3.4h3.1l1-1.1 1 1.1h1.5v-1.1h1c.3.1.7 0 1-.2.3-.2.4-.6.4-.9s-.1-.7-.4-.9c-.3-.2-.6-.4-1-.3zm10 1.3c.3 0 .7.1.9.3.2.2.2.5.2.7 0 .3-.1.6-.4.8-.2.2-.6.3-.9.2h-1.5v-.7H28c.1 0 .2 0 .3-.1.1-.1.1-.1.1-.2s0-.2-.1-.2c-.1-.1-.2-.1-.3-.1h-.1c-.7 0-1.5 0-1.5-1 0-.3.1-.6.3-.8.2-.2.5-.3.8-.2h1.6v.7h-1.4c-.1 0-.2 0-.3.1-.1.1-.1.2-.1.3s.1.2.2.2.2 0 .3.1c0-.1.4-.1.4-.1zm4.3 1c0 .3-.1.6-.4.8-.2.2-.6.3-.9.2h-1.5v-.7h1.5c.1 0 .2 0 .3-.1.1 0 .1 0 .1-.1s0-.2-.1-.2c-.1-.1-.2-.1-.3-.1h-.1c-.7 0-1.5 0-1.5-1 0-.3.1-.6.3-.8.2-.2.5-.3.8-.2h1.6v.7h-1.4c-.1 0-.2 0-.3.1-.1.1-.1.2-.1.3s.1.2.2.2.2 0 .3.1h.4c.3 0 .7.1.9.3.1 0 .2.3.2.5zm-10.8-2.3c.3 0 .7 0 1 .2.3.2.4.5.4.8 0 .4-.2.7-.6.9.2.1.3.2.4.3.1.2.1.4.1.6v.7h-.8v-.4c0-.2 0-.5-.1-.7-.2-.1-.4-.2-.6-.2h-.8v1.2h-.8v-3.4h1.8zm4.5 2.7h-1.8v-.7h1.8v-.7h-1.8v-.6h1.8v-.7h-2.6v3.4h2.6v-.7zm-9.8-2.3-1.2 1.3 1.2 1.4v-2.7zm1.8 1.2h-1v-.9h1c.1 0 .2 0 .3.1.1.1.1.2.1.3s0 .3-.1.3c0 .1-.1.2-.3.2zm3.5-.1c.1 0 .3 0 .4-.1s.2-.2.2-.3-.1-.2-.2-.3-.2-.1-.4-.1h-1v.8h1zm-8.4 1.2h-1.9v-.7h1.7v-.7h-1.7v-.6h2l.9 1-1 1zm-10 9.3c-.1 0-.1 0 0 0l-.2-.1v.1h.2c-.1.1-.1.1 0 0-.1.1 0 0 0 0z" style="fill-rule:evenodd;clip-rule:evenodd;fill:#fff"/></svg>