<?xml version="1.0" encoding="utf-8"?>
<!-- Generator: Adobe Illustrator 25.1.0, SVG Export Plug-In . SVG Version: 6.00 Build 0)  -->
<svg version="1.1" id="Camada_1" xmlns="http://www.w3.org/2000/svg" xmlns:xlink="http://www.w3.org/1999/xlink" x="0px" y="0px"
	 viewBox="0 0 35.5 32.9" style="enable-background:new 0 0 35.5 32.9;" xml:space="preserve">
<style type="text/css">
	.st0{fill-rule:evenodd;clip-rule:evenodd;fill:#FFFFFF;}
</style>
<path class="st0" d="M4.3,2.3h28v15.8h-1.4c-0.4,0-0.7,0.1-1,0.3v-0.3h-2.1c-0.3,0-0.7,0.1-1,0.3v-0.3H23v0.3
	c-0.3-0.2-0.7-0.3-1.1-0.3h-2.5v0.3c-0.3-0.2-0.7-0.3-1.1-0.3h-2.8l-0.7,0.7l-0.6-0.7H10v4.8h4.2l0.7-0.7l0.6,0.7h2.6v-1.1h0.2
	c0.4,0,0.8,0,1.1-0.2v1.3h2.1v-1.2h0.1c0.1,0,0.2,0,0.2,0.2V23h6.4c0.4,0,0.7-0.1,1.1-0.3V23h2c0.4,0,0.8-0.1,1.1-0.2v8.7h-28V17
	h1.4l0.3-0.8h0.7L7.1,17h2.7v-0.6L10,17h1.4l0.2-0.6V17h6.6v-1.3h0.1c0.1,0,0.1,0,0.1,0.2V17h3.4v-0.3c0.4,0.2,0.8,0.3,1.3,0.3h1.4
	l0.3-0.8h0.7l0.3,0.8h2.7v-0.7l0.4,0.7h2.2v-4.7h-2.2v0.6l-0.3-0.6h-2.2v0.6l-0.3-0.6h-3c-0.4,0-0.9,0.1-1.3,0.3v-0.3h-2.1v0.3
	c-0.3-0.2-0.6-0.3-0.9-0.3h-7.6l-0.5,1.2l-0.5-1.2H7.8v0.5l-0.3-0.6h-2l-1,2.3V2.3H4.3z M18.4,12.9c0.3,0,0.6,0,0.9,0.2l0,0
	c0.3,0.2,0.4,0.5,0.4,0.8c0,0.4-0.2,0.7-0.6,0.9c0.2,0.1,0.3,0.2,0.4,0.3c0.1,0.2,0.2,0.4,0.2,0.6v0.6h-0.8v-0.4
	c0-0.2,0-0.5-0.1-0.7c-0.2-0.1-0.4-0.2-0.6-0.1h-0.8v1.2h-0.8v-3.4H18.4z M29.2,16.3h1.1V13h-0.8v2.3l-1.4-2.4h-1.2v3.2l-1.3-3.2
	h-1.2l-1.1,2.7H23c-0.2,0-0.4,0-0.5-0.2c-0.2-0.2-0.2-0.5-0.2-0.8s0-0.5,0.2-0.8c0.2-0.1,0.4-0.2,0.6-0.2h0.8v-0.7h-0.8
	c-0.4,0-0.9,0.1-1.2,0.4c-0.6,0.8-0.6,1.8,0,2.6c0.3,0.3,0.7,0.4,1.2,0.4H24l0.3-0.7h1.6l0.3,0.7h1.6v-2.5
	C27.7,13.8,29.2,16.3,29.2,16.3z M16,15.6h-1.8V15H16v-0.7h-1.8v-0.7H16v-0.7h-2.6v3.4H16V15.6z M11.5,12.9h1.3v3.4H12v-2.6
	l-1.2,2.7h-0.7l-1.2-2.7v2.6H7.3L7,15.6H5.3L5,16.3H4.2l1.4-3.4h1.2l1.3,3.2v-3.2h1.3l1,2.3L11.5,12.9z M21,12.9h-0.8v3.4H21V12.9z
	 M5.8,14.9l0.6-1.3l0.5,1.3H5.8z M25.5,14.9L25,13.6l-0.5,1.3H25.5z M18.3,14.4c0.1,0,0.3,0,0.4-0.1s0.2-0.2,0.2-0.3s0-0.2-0.2-0.3
	c-0.1,0-0.3-0.1-0.4-0.1h-1v0.7h1V14.4z M18.2,18.8h-2.5l-1,1.1l-0.9-1.1h-3.2v3.4h3.1l1-1.1l1,1.1h1.5v-1.1h1c0.3,0.1,0.7,0,1-0.2
	c0.3-0.2,0.4-0.6,0.4-0.9s-0.1-0.7-0.4-0.9C18.9,18.9,18.6,18.7,18.2,18.8z M28.2,20.1c0.3,0,0.7,0.1,0.9,0.3
	c0.2,0.2,0.2,0.5,0.2,0.7c0,0.3-0.1,0.6-0.4,0.8c-0.2,0.2-0.6,0.3-0.9,0.2h-1.5v-0.7H28c0.1,0,0.2,0,0.3-0.1
	c0.1-0.1,0.1-0.1,0.1-0.2s0-0.2-0.1-0.2c-0.1-0.1-0.2-0.1-0.3-0.1h-0.1c-0.7,0-1.5,0-1.5-1c0-0.3,0.1-0.6,0.3-0.8
	c0.2-0.2,0.5-0.3,0.8-0.2h1.6v0.7h-1.4c-0.1,0-0.2,0-0.3,0.1c-0.1,0.1-0.1,0.2-0.1,0.3s0.1,0.2,0.2,0.2s0.2,0,0.3,0.1
	C27.8,20.1,28.2,20.1,28.2,20.1z M32.5,21.1c0,0.3-0.1,0.6-0.4,0.8c-0.2,0.2-0.6,0.3-0.9,0.2h-1.5v-0.7h1.5c0.1,0,0.2,0,0.3-0.1
	c0.1,0,0.1,0,0.1-0.1s0-0.2-0.1-0.2c-0.1-0.1-0.2-0.1-0.3-0.1h-0.1c-0.7,0-1.5,0-1.5-1c0-0.3,0.1-0.6,0.3-0.8
	c0.2-0.2,0.5-0.3,0.8-0.2h1.6v0.7h-1.4c-0.1,0-0.2,0-0.3,0.1c-0.1,0.1-0.1,0.2-0.1,0.3s0.1,0.2,0.2,0.2s0.2,0,0.3,0.1h0.4
	c0.3,0,0.7,0.1,0.9,0.3C32.4,20.6,32.5,20.9,32.5,21.1z M21.7,18.8c0.3,0,0.7,0,1,0.2l0,0c0.3,0.2,0.4,0.5,0.4,0.8
	c0,0.4-0.2,0.7-0.6,0.9c0.2,0.1,0.3,0.2,0.4,0.3c0.1,0.2,0.1,0.4,0.1,0.6v0.7h-0.8v-0.4c0-0.2,0-0.5-0.1-0.7
	c-0.2-0.1-0.4-0.2-0.6-0.2h-0.8v1.2h-0.8v-3.4L21.7,18.8L21.7,18.8z M26.2,21.5h-1.8v-0.7h1.8v-0.7h-1.8v-0.6h1.8v-0.7h-2.6v3.4h2.6
	V21.5z M16.4,19.2l-1.2,1.3l1.2,1.4V19.2z M18.2,20.4h-1v-0.9h1c0.1,0,0.2,0,0.3,0.1c0.1,0.1,0.1,0.2,0.1,0.3s0,0.3-0.1,0.3
	C18.5,20.3,18.4,20.4,18.2,20.4L18.2,20.4z M21.7,20.3c0.1,0,0.3,0,0.4-0.1s0.2-0.2,0.2-0.3s-0.1-0.2-0.2-0.3s-0.2-0.1-0.4-0.1h-1
	v0.8H21.7L21.7,20.3z M13.3,21.5h-1.9v-0.7h1.7v-0.7h-1.7v-0.6h2l0.9,1L13.3,21.5z M3.3,30.8L3.3,30.8C3.2,30.8,3.2,30.8,3.3,30.8
	l-0.2-0.1v0.1H3.3C3.2,30.9,3.2,30.9,3.3,30.8C3.2,30.9,3.3,30.8,3.3,30.8z"/>
</svg>
