<svg xmlns="http://www.w3.org/2000/svg" width="19.461" height="27.559" viewBox="0 0 19.461 27.559">
  <path fill="rgb(0,125,165)" fill-rule="evenodd" d="M9.73034668 0c-2.9317627 0-5.26879883 2.37794495-5.26879883 5.26544952v2.29302216H.76489258C.33996582 7.60092926 0 7.98310089 0 8.40773773v18.30168915c0 .4670868.38244629.84925842.84985352.84925842h17.7611084c.46740722 0 .84985351-.38217163.84985351-.84925842V8.40773773c0-.46710205-.38244629-.84926605-.84985352-.84926605h-3.56921386V5.26544952C15.04174805 2.33547974 12.66223145 0 9.73034668 0zm0 1.6985321c1.99707031 0 3.56921387 1.5711441 3.56921387 3.56691742v2.29302216H6.1611328V5.26544952c0-1.99577331 1.57214356-3.56691742 3.56921387-3.56691742zM4.46142578 9.299469H1.7845459v16.5606842h16.01904297V9.299469h-2.71948242v1.8259201c0 .46710205-.38232422.84926605-.84973145.84926605-.46740723 0-.89233398-.382164-.89233398-.84926605V9.299469H6.20361328v1.8683853c0 .46709443-.42492676.84926606-.89233398.84926606-.46740723 0-.84985352-.42462921-.84985352-.89173126V9.299469z"/>
</svg>
