<svg xmlns="http://www.w3.org/2000/svg" xmlns:xlink="http://www.w3.org/1999/xlink" width="329" height="49" viewBox="0 0 329 49">
  <defs>
    <rect id="rect-1" width="58" height="32" x="0" y="8"/>
    <mask id="mask-2" maskContentUnits="userSpaceOnUse" maskUnits="userSpaceOnUse">
      <rect width="329" height="49" x="0" y="0" fill="black"/>
      <use fill="white" xlink:href="#rect-1"/>
    </mask>
  </defs>
  <g>
    <g>
      <text font-size="0" style="white-space:pre">
        <tspan x="81" y="21" fill="rgb(130,130,130)" font-family="Arial" font-size="23" font-weight="700" style="white-space:pre;text-transform:none" letter-spacing=".21">Frete Grátis Nacional</tspan>
      </text>
      <text font-size="0" style="white-space:pre">
        <tspan x="81" y="45" fill="rgb(130,130,130)" font-family="Arial" font-size="16" font-weight="400" style="white-space:pre;text-transform:none" font-style="italic" letter-spacing=".146">Para compras acima de R$149,00</tspan>
      </text>
    </g>
    <g>
      <use fill="none" xlink:href="#rect-1"/>
      <g mask="url(#mask-2)">
        <path fill="rgb(0,125,165)" fill-rule="evenodd" d="M.00004064 9.33085442c0-.65307618.52722168-1.24084473 1.18640137-1.30615235h39.6772461c.72497558 0 1.31811523.58776856 1.31811523 1.30615235v5.2244873h14.5c.72509765 0 1.3182373.58770752 1.3182373 1.3060913V34.1471386c0 .71838378-.59313965 1.30615234-1.3182373 1.30615234h-6.65673828c-.65905762 2.61224365-3.03186036 4.57141113-5.80004883 4.57141113-2.76818848 0-5.14086914-1.95916748-5.7340088-4.57141113H18.38871253c-.6591797 2.61224365-2.96594239 4.57141113-5.80004883 4.57141113-2.83410645 0-5.20678711-1.95916748-5.79992676-4.57141113H1.31827795c-.72509766 0-1.3182373-.58776856-1.3182373-1.30615234V9.33085442zm39.54541016 1.3060913H2.63639318V32.8410473H6.7226969c.65917969-2.61224366 2.96594238-4.57147217 5.80004883-4.57147217 2.83410645 0 5.2067871 1.95922851 5.80004883 4.57147217H38.3591715c.2635498-.84899903.65905762-1.69799805 1.1862793-2.35101319V10.63694572zm2.57043457 6.53063965h5.33862305v6.53063965c0 .71832276.59313964 1.30609131 1.3182373 1.30609131h6.59082031v7.83673096h-5.47045898c-.59313965-2.61224366-2.96582031-4.57141114-5.79992676-4.57141114-.72497559 0-1.38415527.13061524-1.97729492.32653809V17.16758537zm13.24768066 0h-5.27270508v5.2244873h5.27270508v-5.2244873zm-42.84094238 13.7142334c1.84545898 0 3.29553223 1.43670654 3.29553223 3.26531983 0 1.82855224-1.45007325 3.26531982-3.29553223 3.26531982s-3.29541016-1.43676758-3.29541016-3.26531982c0-1.82861329 1.44995118-3.26531983 3.29541016-3.26531983zm34.93200684 3.26531983c0-1.82861329-1.45007325-3.26531983-3.29553223-3.26531983-1.84545899 0-3.29541016 1.43670654-3.29541016 3.26531983 0 1.82855224 1.44995117 3.26531982 3.29541016 3.26531982 1.84545898 0 3.29553223-1.43676758 3.29553223-3.26531982z"/>
      </g>
    </g>
  </g>
</svg>
