<?xml version="1.0" encoding="utf-8"?>
<!-- Generator: Adobe Illustrator 23.0.1, SVG Export Plug-In . SVG Version: 6.00 Build 0)  -->
<svg version="1.1" id="Camada_1" xmlns="http://www.w3.org/2000/svg" xmlns:xlink="http://www.w3.org/1999/xlink" x="0px" y="0px"
	 viewBox="0 0 1783 151.8" style="enable-background:new 0 0 1783 151.8;" xml:space="preserve">
<style type="text/css">
	.st0{fill-rule:evenodd;clip-rule:evenodd;fill:#FFFFFF;}
	.st1{fill:none;}
	.st2{fill:#DDDDDD;}
	.st3{clip-path:url(#SVGID_2_);}
	.st4{fill:#FFFFFF;}
	.st5{clip-path:url(#SVGID_2_);fill:#FFFFFF;}
</style>
<path class="st0" d="M515.9,22.4h101.9V80h-5.3c-1.3,0-2.5,0.3-3.6,1.1V80h-7.8c-1.3,0-2.5,0.3-3.5,1.1V80h-13.9v1.1
	c-1.2-0.7-2.6-1.1-3.9-1.1h-9.2v1.1c-1.2-0.8-2.6-1.2-4-1.1h-10.4l-2.4,2.7l-2.2-2.7h-15.4v17.3h15.1l2.4-2.7l2.2,2.7h9.4v-4.1h0.9
	c1.4,0.1,2.7-0.1,4-0.6v4.7h7.7v-4.5h0.4c0.5,0,0.5,0,0.5,0.6v4h23.4c1.4,0.1,2.7-0.3,3.9-1.1v1.1h7.4c1.4,0,2.8-0.2,4.2-0.8v31.7
	H515.9V76h5l1.1-2.8h2.5l1,2.8h9.7v-2.1L536,76h5l0.8-2.2V76h23.9v-4.6h0.4c0.4,0,0.4,0.1,0.4,0.6v4h12.4V75c1.4,0.7,3,1.1,4.6,1.1
	h5.2l1.1-2.8h2.5l1.1,2.8h10v-2.6l1.6,2.6h8V58.8h-7.9v2l-1.2-2h-8.1v2l-1-2h-11c-1.6-0.1-3.3,0.2-4.7,1v-1h-7.7v1
	c-0.9-0.7-2.1-1.1-3.2-1h-27.7l-1.9,4.4l-1.9-4.4h-8.7v2l-1-2h-7.4l-3.5,8.2V22.4z M567.2,61.2c1.2-0.1,2.4,0.1,3.4,0.6v0
	c1,0.6,1.6,1.7,1.5,2.8c0,1.4-0.8,2.7-2.1,3.3c0.6,0.2,1,0.6,1.4,1.1c0.5,0.6,0.7,1.4,0.5,2.2v2.4h-3v-1.6c0.1-0.8,0-1.7-0.4-2.4
	c-0.6-0.4-1.4-0.6-2.2-0.5h-3.1v4.5h-2.8V61.2H567.2z M606.5,73.5h4.1V61.2h-3v8.6l-5-8.6h-4.4v11.7l-4.8-11.7h-4.2l-4.1,9.7h-1.3
	c-0.7,0.1-1.4-0.2-2-0.6c-0.6-0.9-0.8-1.9-0.8-3c-0.1-1,0.2-2,0.8-2.8c0.6-0.5,1.4-0.8,2.2-0.7h2.7v-2.7H584
	c-1.6-0.2-3.2,0.4-4.4,1.4c-2,2.9-2,6.7-0.1,9.5c1.2,1,2.7,1.5,4.2,1.4h3.4l1.1-2.7h6l1.1,2.7h5.8v-9.3L606.5,73.5z M558.6,71h-6.7
	v-2.5h6.6v-2.6h-6.6v-2.2h6.7v-2.6H549v12.4h9.6V71z M542.2,61.1h4.7v12.4h-2.9v-9.7l-4.2,9.7h-2.4l-4.2-9.7v9.7h-5.8l-1.1-2.7h-6.1
	l-1.1,2.7H516l5.1-12.4h4.2l4.9,11.7V61.1h4.6l3.8,8.4L542.2,61.1z M576.6,61.2h-2.9v12.4h2.9V61.2z M521.2,68.2l2-4.9l1.9,4.9
	H521.2z M593.2,68.2l-2-4.9l-2,4.9H593.2z M566.9,66.5c0.5,0.1,1,0,1.4-0.3c0.4-0.2,0.6-0.7,0.5-1.1c0-0.5-0.2-0.9-0.5-1.1
	c-0.5-0.2-0.9-0.2-1.4-0.2h-3.5v2.7H566.9z M566.7,82.5h-9.1l-3.7,4.1l-3.5-4.1h-11.6v12.4h11.4l3.6-4.1l3.5,4.1h5.5v-4.2h3.6
	c1.2,0.3,2.5,0,3.5-0.9c1-0.8,1.5-2,1.5-3.3c0-1.2-0.5-2.4-1.4-3.2C569.1,82.6,567.9,82.2,566.7,82.5z M603.1,87.3
	c1.2-0.1,2.4,0.3,3.4,1c0.6,0.8,0.9,1.7,0.8,2.7c0.1,1.2-0.4,2.3-1.3,3.1c-0.9,0.8-2.1,1.1-3.2,0.8h-5.5v-2.6h5.5
	c0.4,0,0.8-0.1,1.1-0.3c0.2-0.2,0.3-0.5,0.4-0.8c0-0.3-0.1-0.6-0.4-0.9c-0.3-0.2-0.7-0.3-1-0.3c-0.2,0-0.3,0-0.5,0
	c-2.5-0.1-5.5-0.1-5.5-3.8c0-1.1,0.4-2.1,1.2-2.8c0.8-0.7,1.9-1,2.9-0.9h5.7v2.6h-5.2c-0.4-0.1-0.8,0-1.1,0.2
	c-0.3,0.2-0.5,0.6-0.4,1c0,0.4,0.2,0.7,0.6,0.9c0.4,0.1,0.7,0.2,1.1,0.2H603.1z M618.5,91c0.1,1.2-0.4,2.3-1.3,3s-2.1,1.1-3.2,0.8
	h-5.5v-2.6h5.5c0.4,0,0.8-0.1,1.1-0.3c0.2-0.2,0.3-0.5,0.4-0.8c0-0.3-0.1-0.6-0.4-0.9c-0.3-0.2-0.7-0.3-1-0.3c-0.2,0-0.3,0-0.5,0
	c-2.5-0.1-5.5-0.1-5.5-3.8c0-1.1,0.4-2.1,1.2-2.8c0.8-0.7,1.8-1,2.9-0.9h5.7v2.6h-5.2c-0.4-0.1-0.8,0-1.1,0.2
	c-0.3,0.2-0.4,0.6-0.4,1c0,0.4,0.2,0.7,0.6,0.9c0.4,0.1,0.7,0.2,1.1,0.2h1.5c1.2-0.1,2.4,0.2,3.4,1C618.3,89.1,618.6,90,618.5,91z
	 M579.4,82.5c1.2-0.1,2.4,0.1,3.5,0.6v0c1,0.6,1.5,1.6,1.4,2.8c0.1,1.4-0.7,2.7-2,3.3c0.6,0.2,1.1,0.6,1.5,1.1
	c0.4,0.7,0.5,1.5,0.4,2.3v2.4h-2.8v-1.5c0.1-0.9-0.1-1.7-0.5-2.5c-0.6-0.5-1.3-0.7-2.1-0.6h-3.1v4.5h-2.9V82.5L579.4,82.5
	L579.4,82.5z M595.5,92.3h-6.7v-2.5h6.6v-2.5h-6.6v-2.3h6.7v-2.6H586v12.4h9.6V92.3z M560.1,83.8l-4.4,4.8l4.4,5.1V83.8z
	 M566.7,88.2h-3.8v-3.1h3.8c0.4-0.1,0.9,0,1.2,0.3c0.3,0.3,0.5,0.7,0.5,1.2c0,0.5-0.1,0.9-0.5,1.2C567.6,88.1,567.1,88.2,566.7,88.2
	L566.7,88.2z M579.2,87.8c0.5,0,0.9,0,1.4-0.2c0.4-0.3,0.6-0.8,0.6-1.2c0-0.4-0.2-0.9-0.6-1.1c-0.4-0.2-0.9-0.3-1.4-0.2h-3.5v2.8
	L579.2,87.8L579.2,87.8z M548.7,92.3h-7.1v-2.5h6.3v-2.5h-6.3V85h7.2l3.2,3.6L548.7,92.3z M512,126.3c0-0.1,0-0.1,0-0.2
	c0,0-0.1-0.1-0.2-0.1h-0.7v0.5h0.5c0.1,0,0.2,0,0.2-0.1S512,126.4,512,126.3z"/>
<path class="st0" d="M1130,37.4h-18.5c-8.2,0.4-14.9,3.6-16.8,10.3c-1,3.5-1.6,7.3-2.4,11c-4,18.4-7.5,37.4-11.4,55.4h144.4
	c11.2,0,18.8-2.3,20.9-11.1c1-4.1,1.9-8.6,2.8-13.1c3.6-17.4,7.2-34.7,10.9-52.6L1130,37.4L1130,37.4z M1240.1,86.7h-3.5
	c0.1-0.9,0.2-1.9,0.4-2.8c-0.3,0.2-0.6,0.5-0.7,0.9c-0.4,0.5-0.8,1-1.4,1.3c-3.1,1.6-6.8,1.3-9.6-0.8c-1-1.3-1.5-2.9-1.4-4.5
	c-0.1-8.5,5.8-15.5,15.3-12.5c0.6-2.6,1-5.4,1.4-8.3h3.9C1242.5,68.9,1241,77.8,1240.1,86.7L1240.1,86.7L1240.1,86.7z M1127.3,60.5
	c-0.6,0-1.2,0.3-1.5,0.8c-0.7,1-0.7,2.3-0.2,3.4c0.9,0.5,2,0.5,2.9,0c1.2-1,1.4-2.6,0.6-3.9C1128.6,60.4,1127.9,60.3,1127.3,60.5z
	 M1112.9,86.7c0.7-4.4,1.6-8.5,2.3-12.8c-4-0.2-8-0.3-12-0.1c-0.9,4.1-1.5,8.6-2.3,12.9h-4.4c1.7-8.5,3.2-17.3,4.7-26h4.3
	c-0.7,3.4-1.3,7-2,10.4c3.1,0.2,6.4,0.2,9.6,0.1c0.8,0,1.6,0,2.4,0c0.6-3.5,1.3-7,1.8-10.5h4.5c-1.8,8.5-3.3,17.2-4.7,26H1112.9z
	 M1178.4,83.2c1.4,4.5,7.7,4.8,12.7,3v0c0.3-0.9,0.3-1.9,0.6-2.9c-2.8,1.4-8.1,2.2-9.3-1c-0.3-1.2-0.5-2.4-0.3-3.6
	c0.1-2.6,1-5.1,2.6-7.1c2.8-1.7,6.3-1.9,9.2-0.5c0.1-1.1,0.3-2,0.5-3c-4.4-1.8-9.4-0.9-12.8,2.4S1176.8,78.7,1178.4,83.2z
	 M1152.9,76.8c4.2-0.1,8.6-0.1,12.8,0v0c0.6-1.9,0.7-4,0.3-6c-1.5-2.5-4.4-3.7-7.2-2.9c-2.6,0-5,1-6.9,2.8
	c-2.5,3.2-3.7,7.2-3.3,11.2c0.7,6.2,8.5,5.9,14.7,4.5c0.1-1.1,0.4-2,0.6-3c-3,1.5-6.5,1.7-9.7,0.6
	C1152.4,82,1151.8,79.2,1152.9,76.8z M1141.8,86.2c-2.4,1.3-8.3,1.9-9.1-1.4c-0.8,3.2-1.2,6.8-1.7,10.2h-3.9
	c1.7-8.8,3.4-17.7,4.8-26.8h3.4c0,0.6-0.3,1-0.3,1.6c2.6-1.9,5.9-2.5,9-1.6C1150.8,70.7,1146.9,83.5,1141.8,86.2L1141.8,86.2
	L1141.8,86.2z M1210.3,78.2c-0.6,2.8-0.9,5.7-1,8.6h-3.3c-0.1-1,0-1.9,0.3-2.9c-2.4,3-6.5,4.2-10.1,2.8c-2.2-1.5-3.1-4.4-2.1-6.9
	c1.4-4.5,6.6-5.6,13.1-5c0.4-0.9,0.6-1.9,0.5-2.9c-0.7-3-7.8-1.3-10.1-0.7c0.3-1,0.6-2,0.7-3c0.8,0,1.8-0.1,2.8-0.2
	c4.5-0.4,10.1-0.8,10.4,3.2C1211.3,73.6,1210.9,75.9,1210.3,78.2L1210.3,78.2z M1172.6,74.8c-1,3.9-1.7,7.9-2,11.9h-3.9
	c1.2-6.1,2.4-12.1,3.2-18.5h3.5c-0.2,1-0.3,2.1-0.6,3.1c1.3-2.8,4.5-4.1,7.4-3.1c-0.1,1-0.4,1.7-0.4,2.8c-1.5-0.5-3.1-0.4-4.4,0.3
	S1173,73.3,1172.6,74.8L1172.6,74.8L1172.6,74.8z M1216.5,86.7c0.1-2.2,0.4-4.5,0.9-6.7v0c0.9-5.1,2-10.8,8.1-9.1
	c0.2-0.9,0.3-1.9,0.6-2.7c-2.8-1.1-6,0.2-7.4,2.9c0.3-0.9,0.3-2,0.6-2.9h-3.5c-0.9,6.4-2,12.5-3.4,18.5H1216.5z M1124.4,68.5
	c-0.9,6.3-2,12.3-3.2,18.3h3.9c0.9-6.4,2-12.6,3.4-18.5h-3.9C1124.4,68.2,1124.4,68.3,1124.4,68.5z M1158.5,70.2
	c-2.6,0-4.7,1.9-5.2,4.5h9.1C1163.3,71.2,1161.3,70.1,1158.5,70.2z M1227.9,80.5c-0.1-4.6,2-9.8,6.2-10.2v0c1.6-0.2,3.3,0.1,4.8,0.7
	c-1.3,5.2-0.8,13.6-6.9,13.7c-1.1,0.1-2.2-0.3-3-1.1C1228.1,82.7,1227.7,81.6,1227.9,80.5z M1134,76.9c0.3-1.7,0.6-3.3,0.9-4.7
	c2-2.5,8.1-2.8,8.7,1.3c0.4,3.5-0.5,7-2.6,9.8c-2.1,2.2-7.2,2.1-7.6-1.5C1133.3,80.1,1133.5,78.4,1134,76.9z M1197.6,81
	c-0.6,4.6,5.1,4.1,7.1,2.1c1.3-1.8,2.1-4,2.3-6.2C1202.3,76.4,1198,77.2,1197.6,81z"/>
<path class="st0" d="M369.6,92.1c-0.1,11.7-10.2,19.2-25.7,19.2c-5.6,0-11.2-1-16.4-3l2-12.6l1.9,0.9c4.3,2.1,9.1,3.1,13.9,2.9
	c4.2,0,8.8-1.7,8.8-5.5c0.1-2.5-1.9-4.2-7.6-7c-5.6-2.7-13-7.2-12.9-15.3c0.1-10.9,10.4-18.5,25-18.5c4.5,0,9,0.8,13.2,2.4l-2,12.2
	l-1.3-0.7c-3.5-1.5-7.2-2.2-11-2.2c-5.8,0-8.5,2.5-8.5,4.8c0,2.6,3.1,4.4,8.3,7C365.7,80.8,369.7,85.7,369.6,92.1z M240,54.9
	c15.5,3.1,28.4,13.7,34.5,28.3l-5-24.8c-0.7-2.9-3.5-4.9-6.4-4.6h-22.9L240,54.9z M240,54.9L240,54.9L240,54.9L240,54.9z
	 M398.2,54.3h11.4l12,56.1h-13.7c0,0-1.4-6.4-1.8-8.4l-18.9,0c-0.6,1.5-3.1,8.4-3.1,8.4h-15.5L390.5,59
	C391.7,55.8,394.8,53.9,398.2,54.3z M327.4,54.3h-14.8l-9.3,56.2h14.8L327.4,54.3z M306.7,54.3l-23.3,56.1h-15.6l-13.2-46.8
	c8.8,5.8,15.8,13.8,20.5,23.3l1.5,5.8l14.5-38.3L306.7,54.3L306.7,54.3z M397.3,74.8c0,0-4.7,12.5-5.9,15.7v0h12.3
	c-0.6-2.8-3.5-16.2-3.5-16.2l-1-4.8c-0.4,1-0.9,2.4-1.3,3.5C397.5,74.1,397.2,74.9,397.3,74.8z"/>
<g>
	<rect x="13.6" y="7.8" class="st1" width="166.8" height="136"/>
	<path class="st0" d="M156.7,126.7v-15.1h-2.3v5.6c-0.8-1-2.1-1.6-3.4-1.6c-3.1,0-5.7,2.5-5.7,5.6s2.5,5.6,5.7,5.6
		c1.3,0,2.6-0.5,3.4-1.6v1.3H156.7z M86.3,115.9h3.9l0,2.1h-3.9v4.9c0,1.1,0.4,1.8,1.6,1.8c0.7,0,1.5-0.2,2.1-0.6l0.7,2
		c-0.9,0.5-1.9,0.8-3,0.8c-2.8,0-3.8-1.5-3.8-4v-5h-2.2v-2.1h2.2v-3.3h2.4V115.9z M114.3,125.4c-1.1-1.1-1.7-2.6-1.6-4.1v0
		c-0.1-1.5,0.5-3,1.6-4.1c1.1-1.1,2.6-1.6,4.2-1.6c1.4-0.1,2.8,0.4,3.9,1.3l-1.1,1.9c-0.8-0.6-1.8-1-2.8-1c-1.8,0.1-3.2,1.6-3.2,3.5
		c0,1.8,1.4,3.3,3.2,3.5c1,0,2-0.4,2.8-1l1.1,1.9c-1.1,0.9-2.5,1.4-3.9,1.3C116.9,127,115.4,126.5,114.3,125.4z M110.3,115.6
		c-1.2,0-2.3,0.6-2.9,1.6v-1.3h-2.3v10.8h2.4v-6.1c0-1.8,0.8-2.8,2.3-2.8c0.5,0,1,0.1,1.5,0.3l0.7-2.3
		C111.4,115.7,110.9,115.6,110.3,115.6C110.3,115.6,110.3,115.6,110.3,115.6z M143.1,115.6c-1.2,0-2.3,0.6-2.9,1.6v-1.3h-2.3v10.8
		h2.4v-6.1c0-1.8,0.8-2.8,2.3-2.8c0.5,0,1,0.1,1.5,0.3l0.7-2.3C144.2,115.7,143.7,115.6,143.1,115.6L143.1,115.6z M54.9,119.9v6.8
		l-2.4,0v-6c0-1.8-0.8-2.8-2.4-2.8c-0.8,0-1.5,0.3-2,0.8c-0.5,0.6-0.8,1.3-0.7,2.1v6h-2.4v-6c0-1.8-0.8-2.8-2.4-2.8
		c-0.8,0-1.5,0.3-2,0.8c-0.5,0.6-0.8,1.3-0.6,2.1v5.9h-2.4v-10.8H40v1.3c0.7-1.1,1.9-1.7,3.2-1.6c1.5-0.1,2.8,0.7,3.6,1.9
		c0.8-1.3,2.3-2,3.8-1.9c1.2-0.1,2.3,0.4,3.1,1.2C54.5,117.7,54.9,118.8,54.9,119.9z M75.4,115.6c1.6-0.1,3.1,0.3,4.4,1.1l-1,1.9
		c-1-0.6-2.2-0.9-3.4-0.9c-1.3,0-2.1,0.5-2.1,1.3s0.8,0.9,1.8,1.1l1.1,0.2c2.4,0.3,3.8,1.2,3.8,3.2s-1.8,3.5-5,3.5
		c-1.7,0-3.3-0.4-4.7-1.4l1.1-1.8c1,0.8,2.3,1.2,3.6,1.1c1.6,0,2.5-0.5,2.5-1.3c0-0.6-0.6-0.9-1.9-1.1l-1.1-0.2
		c-2.4-0.3-3.7-1.4-3.7-3.2C70.9,117,72.7,115.6,75.4,115.6z M68.2,126.7v-10.8h-2.4v1.3c-0.8-1-2.1-1.6-3.4-1.6
		c-3.1,0-5.7,2.5-5.7,5.6s2.5,5.6,5.7,5.6c1.3,0,2.6-0.5,3.4-1.6v1.3H68.2z M134.8,126.7v-10.8h-2.4v1.3c-0.8-1-2.1-1.6-3.4-1.6
		c-3.1,0-5.7,2.5-5.7,5.6s2.5,5.6,5.7,5.6c1.3,0,2.6-0.5,3.4-1.6v1.3H134.8z M97.5,115.6c-3.1,0-5.6,2.6-5.6,5.7
		c0,3.1,2.6,5.6,5.8,5.6c1.6,0.1,3.2-0.4,4.5-1.5l-1.1-1.7c-0.9,0.7-2,1.1-3.2,1.1c-1.6,0.1-3.1-1-3.2-2.6h8.1v-0.9
		C102.7,117.9,100.6,115.7,97.5,115.6L97.5,115.6z M99.4,118.5c-0.5-0.5-1.2-0.8-1.9-0.7h0c-1.5-0.1-2.8,1.1-2.9,2.6h5.7
		C100.3,119.7,100,119,99.4,118.5z M129.4,118.2c-1.8-0.1-3.3,1.3-3.4,3.1c-0.1,0.9,0.3,1.8,0.9,2.4c0.6,0.7,1.5,1,2.4,1
		c1.8,0,3.2-1.4,3.3-3.2C132.6,119.8,131.2,118.3,129.4,118.2z M62.8,118.2c-1.8-0.1-3.3,1.3-3.4,3.1h0c-0.1,0.9,0.3,1.8,0.9,2.5
		c0.6,0.7,1.5,1,2.4,1c1.8,0,3.2-1.4,3.3-3.2C66,119.8,64.6,118.3,62.8,118.2z M151.4,118.2c-1.8-0.1-3.3,1.3-3.4,3.1
		c-0.1,0.9,0.3,1.8,0.9,2.4c0.6,0.7,1.5,1,2.4,1c1.8,0,3.2-1.4,3.3-3.2C154.6,119.8,153.2,118.3,151.4,118.2z M161.1,125.2
		c-0.1,0-0.3-0.1-0.4-0.1c-0.2,0-0.3,0-0.5,0.1c-0.1,0.1-0.2,0.1-0.4,0.2c-0.1,0.1-0.2,0.2-0.2,0.3c-0.1,0.3-0.1,0.6,0,0.8
		c0.2,0.4,0.6,0.7,1,0.7c0.1,0,0.3,0,0.4-0.1c0.1-0.1,0.2-0.1,0.4-0.2c0.1-0.1,0.2-0.2,0.2-0.3c0.1-0.3,0.1-0.6,0-0.8
		c-0.1-0.1-0.1-0.2-0.2-0.3C161.3,125.4,161.2,125.3,161.1,125.2z M160.7,127.1c0.1,0,0.2,0,0.3-0.1c0.1,0,0.2-0.1,0.3-0.2
		c0.3-0.3,0.3-0.8,0-1.1c-0.1-0.1-0.2-0.1-0.3-0.2c-0.1,0-0.2-0.1-0.3-0.1c-0.1,0-0.2,0-0.3,0.1c-0.1,0-0.2,0.1-0.3,0.2
		c-0.3,0.3-0.3,0.8,0,1.1c0.1,0.1,0.2,0.1,0.3,0.2C160.5,127,160.6,127.1,160.7,127.1L160.7,127.1z M161,125.8
		c-0.1-0.1-0.2-0.1-0.3-0.1l-0.5,0v1h0.2v-0.4h0.1l0.3,0.4h0.3l-0.3-0.4c0.1,0,0.2,0,0.2-0.1c0.1-0.1,0.1-0.1,0.1-0.2
		C161.1,125.9,161.1,125.9,161,125.8z M160.5,125.9v0.3h0.2c0,0,0.1,0,0.1,0c0,0,0-0.1,0-0.1c0,0,0-0.1,0-0.1c0,0-0.1,0-0.1,0
		L160.5,125.9z"/>
	<g transform="translate(-53.51020408 4.46280992)">
		<rect x="132.6" y="29.2" class="st2" width="35.8" height="63.9"/>
		<path class="st0" d="M134.8,61.2c0-12.5,5.7-24.3,15.6-32c-16.8-13.1-40.9-11.2-55.3,4.4s-14.5,39.6,0,55.2s38.6,17.5,55.3,4.4
			C140.6,85.4,134.8,73.6,134.8,61.2z"/>
		<path class="st0" d="M216.6,61.2c0,15.6-8.9,29.8-23,36.6c-14.1,6.8-30.8,5-43.2-4.6c9.9-7.7,15.6-19.5,15.6-32s-5.8-24.3-15.6-32
			c12.3-9.6,29.1-11.4,43.2-4.6S216.6,45.6,216.6,61.2L216.6,61.2z"/>
	</g>
</g>
<g>
	<path class="st0" d="M1363.9,61.8c2.1-0.7,4.3-1.1,6.5-1.1c10,0,18.3,7.2,20.2,16.8l14.2-2.9c-3.2-16.3-17.4-28.5-34.4-28.5
		c-3.9,0-7.6,0.6-11.1,1.8L1363.9,61.8z"/>
	<path class="st0" d="M1347.2,108.4l9.6-11c-4.3-3.8-7-9.5-7-15.7c0-6.2,2.7-11.8,7-15.7l-9.6-11c-7.3,6.5-11.8,16.1-11.8,26.7
		C1335.4,92.3,1340,101.9,1347.2,108.4"/>
	<path class="st0" d="M1390.7,85.9c-1.9,9.6-10.2,16.7-20.2,16.7c-2.3,0-4.5-0.4-6.6-1.1l-4.6,13.9c3.5,1.2,7.2,1.8,11.1,1.8
		c17,0,31.1-12.2,34.4-28.5L1390.7,85.9z"/>
	<path class="st0" d="M1415.8,95c0.4,0.9,1,2.1,1.5,2.9l38.6-17.1c-0.2-0.6-0.5-1.3-0.7-1.9c-2.1-5-4.9-8.5-8.8-10.8
		c-6.2-3.7-13.3-4.3-19.8-1.5c-5.1,2.2-9.1,6.6-11.2,12.4C1413.4,84.2,1413.5,89.7,1415.8,95z M1430.2,75.1c-4.6,2-7,6.4-6.5,11.5
		l19.4-8.5C1439.8,74.1,1435.4,72.8,1430.2,75.1z M1445.6,93.5C1445.6,93.5,1445.5,93.5,1445.6,93.5l-0.4-0.3
		c-1.2,1.9-3,3.5-5.3,4.5c-4.3,1.9-8.4,1.4-11.3-1.1l-0.3,0.4c0,0,0,0,0,0l-4.9,7.5c1.2,0.9,2.5,1.6,3.9,2.2
		c5.4,2.3,11,2.2,16.5-0.2c4-1.7,7.1-4.4,9.2-7.8L1445.6,93.5L1445.6,93.5z"/>
	<path class="st0" d="M1469.4,55.6v41.6l6.4,2.6l-3.6,8.6l-7-3c-1.6-0.7-2.7-1.8-3.5-3c-0.8-1.2-1.4-2.9-1.4-5.2V55.6H1469.4z"/>
	<path class="st0" d="M1485.9,86.6c0-3.5,1.5-6.7,4-8.9l-6.5-7.4c-4.4,4-7.2,9.8-7.2,16.3c0,6.5,2.8,12.3,7.2,16.3l6.5-7.4
		C1487.5,93.3,1485.9,90.1,1485.9,86.6"/>
	<path class="st0" d="M1497.5,98.4c-1.3,0-2.5-0.2-3.7-0.6l-3.1,9.4c2.1,0.7,4.4,1.1,6.8,1.1c10.4,0,19-7.4,21-17.4l-9.6-2
		C1507.8,94.4,1503.2,98.4,1497.5,98.4"/>
	<path class="st0" d="M1504,75.8c2.8,2.1,4.4,5.3,4.7,8.5l9.8-0.7c-0.5-5.9-3.4-11.7-8.6-15.6c-5.2-3.9-11.5-5.2-17.3-4.1l2,9.7
		C1497.8,73,1501.2,73.7,1504,75.8"/>
</g>
<g>
	<defs>
		<rect id="SVGID_1_" x="696.9" y="30.4" width="313.4" height="81.9"/>
	</defs>
	<clipPath id="SVGID_2_">
		<use xlink:href="#SVGID_1_"  style="overflow:visible;"/>
	</clipPath>
	<g class="st3">
		<path class="st4" d="M714.5,71.3c0,10.1,6.3,18.7,15.2,22.2V49.1C720.9,52.5,714.6,61.2,714.5,71.3z"/>
		<path class="st4" d="M746.8,49.1v44.3c8.9-3.4,15.2-12,15.3-22.2C762,61.2,755.7,52.5,746.8,49.1z"/>
		<path class="st4" d="M757.5,30.4h-19.3c-22.6,0-41.3,16.9-41.3,41.3c0,22.3,18.6,40.7,41.3,40.6h19.3
			c22.4,0.1,42.8-18.2,42.8-40.6C800.3,47.3,779.8,30.4,757.5,30.4z M738.3,108.8c-20.7,0-37.5-16.8-37.5-37.5
			c0-20.7,16.8-37.5,37.5-37.5c20.7,0,37.5,16.8,37.5,37.5C775.8,92,759,108.7,738.3,108.8z"/>
	</g>
	<path class="st5" d="M818.3,81.5c0,3.3,2.4,3.7,4.5,3.7c9.3,0,12.4-7,12.4-13.4c0-8-5.2-13.9-13.5-13.9c-1.8,0-2.6,0.1-3.4,0.2
		V81.5z M814.1,61.3c0-3.9-2-3.6-4-3.7v-1.1c1.7,0.1,3.4,0.1,5.1,0.1c1.8,0,4.3-0.1,7.5-0.1c11.1,0,17.2,7.4,17.2,15.1
		c0,4.3-2.5,15-17.7,15c-2.2,0-4.2-0.1-6.2-0.1c-1.9,0-3.8,0-5.8,0.1v-1.1c2.6-0.3,3.8-0.3,4-3.3V61.3z"/>
	<path class="st5" d="M846,60.3c-1.1,0-2.1-1-2.1-2.2c0-1.1,1-2.1,2.1-2.1c1.1,0,2.1,0.9,2.1,2.1C848.1,59.3,847.2,60.3,846,60.3
		 M841.4,85.4h0.8c1.2,0,2.1,0,2.1-1.4V72.4c0-1.9-0.6-2.2-2.2-3v-0.7c2-0.6,4.4-1.4,4.6-1.6c0.3-0.2,0.6-0.2,0.8-0.2
		c0.2,0,0.3,0.3,0.3,0.6V84c0,1.4,0.9,1.4,2.2,1.4h0.7v1.1c-1.5,0-3-0.1-4.5-0.1c-1.6,0-3.1,0-4.7,0.1V85.4z"/>
	<path class="st5" d="M854.7,72.6c0-1.6-0.5-2-2.5-2.8V69c1.8-0.6,3.6-1.2,5.7-2.1c0.1,0,0.3,0.1,0.3,0.4v2.8
		c2.5-1.8,4.6-3.2,7.5-3.2c3.7,0,4.9,2.7,4.9,6V84c0,1.4,0.9,1.4,2.2,1.4h0.8v1.1c-1.5,0-3-0.1-4.6-0.1c-1.6,0-3.1,0-4.7,0.1v-1.1
		h0.8c1.2,0,2.1,0,2.1-1.4V72.9c0-2.5-1.5-3.7-4-3.7c-1.4,0-3.6,1.1-5,2.1V84c0,1.4,1,1.4,2.2,1.4h0.8v1.1c-1.5,0-3-0.1-4.6-0.1
		c-1.5,0-3.1,0-4.6,0.1v-1.1h0.8c1.2,0,2.1,0,2.1-1.4V72.6z"/>
	<path class="st5" d="M884.4,73.3c1.1,0,1.2-0.6,1.2-1.1c0-2.2-1.3-4-3.7-4c-2.6,0-4.4,1.9-4.9,5H884.4z M876.8,74.7
		c-0.1,0.4-0.1,1,0,2.5c0.3,4.1,2.9,7.4,6.3,7.4c2.4,0,4.2-1.3,5.8-2.9l0.6,0.6c-2,2.6-4.4,4.9-8,4.9c-6.8,0-8.2-6.6-8.2-9.4
		c0-8.4,5.7-10.9,8.7-10.9c3.5,0,7.2,2.2,7.3,6.8c0,0.3,0,0.5,0,0.8l-0.4,0.3H876.8z"/>
	<path class="st5" d="M890.3,85.4h1.2c1.2,0,2.1,0,2.1-1.4V71.9c0-1.3-1.6-1.6-2.2-1.9v-0.6c3.1-1.3,4.9-2.5,5.3-2.5
		c0.3,0,0.4,0.1,0.4,0.6v3.9h0.1c1.1-1.7,2.9-4.4,5.5-4.4c1.1,0,2.5,0.7,2.5,2.3c0,1.2-0.8,2.2-2,2.2c-1.3,0-1.3-1-2.8-1
		c-0.7,0-3.1,1-3.1,3.6V84c0,1.4,0.9,1.4,2.1,1.4h2.4v1.1c-2.4,0-4.2-0.1-6-0.1c-1.8,0-3.6,0-5.1,0.1V85.4z"/>
	<path class="st5" d="M906.9,80.6c0.6,2.8,2.3,5.3,5.4,5.3c2.5,0,3.5-1.6,3.5-3.1c0-5.1-9.4-3.4-9.4-10.4c0-2.4,1.9-5.5,6.7-5.5
		c1.4,0,3.2,0.4,4.9,1.3l0.3,4.4h-1c-0.4-2.7-1.9-4.3-4.7-4.3c-1.7,0-3.4,1-3.4,2.8c0,5,10,3.5,10,10.2c0,2.8-2.3,5.9-7.4,5.9
		c-1.7,0-3.7-0.6-5.3-1.5l-0.5-5L906.9,80.6z"/>
	<path class="st5" d="M958.1,64.3H957c-0.8-5-4.4-7.1-9.2-7.1c-5,0-12.1,3.3-12.1,13.6c0,8.7,6.2,14.9,12.8,14.9
		c4.3,0,7.8-2.9,8.7-7.4l1,0.3l-1,6.3c-1.8,1.1-6.7,2.3-9.5,2.3c-10.1,0-16.4-6.5-16.4-16.2c0-8.8,7.9-15.2,16.3-15.2
		c3.5,0,6.8,1.1,10.2,2.3L958.1,64.3z"/>
	<path class="st5" d="M959.6,85.4h0.8c1.2,0,2.1,0,2.1-1.4V60c0-2.8-0.6-2.9-2.3-3.4V56c1.7-0.6,3.5-1.3,4.4-1.9
		c0.5-0.3,0.8-0.5,0.9-0.5c0.3,0,0.3,0.3,0.3,0.6V84c0,1.4,0.9,1.4,2.2,1.4h0.7v1.1c-1.5,0-3-0.1-4.5-0.1c-1.5,0-3.1,0-4.7,0.1V85.4
		z"/>
	<path class="st5" d="M987.3,84.2c0,0.8,0.5,0.8,1.2,0.8c0.5,0,1.2,0,1.7,0v0.9c-1.9,0.2-5.4,1.1-6.2,1.3l-0.2-0.1v-3.5
		c-2.6,2.1-4.6,3.6-7.6,3.6c-2.3,0-4.7-1.5-4.7-5.1v-11c0-1.1-0.2-2.2-2.6-2.4v-0.8c1.6,0,5-0.3,5.6-0.3c0.5,0,0.5,0.3,0.5,1.2v11.1
		c0,1.3,0,5,3.7,5c1.5,0,3.4-1.1,5.2-2.6V70.7c0-0.9-2.1-1.3-3.6-1.8v-0.8c3.9-0.3,6.3-0.6,6.7-0.6c0.3,0,0.3,0.3,0.3,0.8V84.2z"/>
	<path class="st5" d="M995.9,81.7c0,1.6,1.6,4.4,4.4,4.4c4.6,0,6.5-4.5,6.5-8.4c0-4.6-3.5-8.5-6.9-8.5c-1.6,0-2.9,1-4.1,2V81.7z
		 M995.9,70c1.7-1.5,4-3.1,6.4-3.1c5,0,8,4.4,8,9c0,5.6-4.1,11.3-10.3,11.3c-3.2,0-4.9-1-6-1.5l-1.3,1l-0.9-0.5
		c0.4-2.5,0.6-5,0.6-7.7V60c0-2.8-0.6-2.9-2.3-3.4V56c1.7-0.6,3.5-1.3,4.4-1.9c0.5-0.3,0.8-0.5,0.9-0.5c0.3,0,0.3,0.3,0.3,0.6V70z"
		/>
</g>
<g>
	<path id="path4" class="st4" d="M1591.5,35.5h1.8v48.4h-1.8V35.5z M1595.2,35.5h1.8v48.4h-1.8V35.5z M1606.1,35.5h1.8v48.4h-1.8
		V35.5z M1641.6,35.5h1.8v48.4h-1.8V35.5z M1653.5,35.5h1.8v48.4h-1.8V35.5z M1665,35.5h1.8v48.4h-1.8V35.5z M1667.9,35.5h1.8v48.4
		h-1.8V35.5z M1670.9,35.5h1.8v48.4h-1.8V35.5z M1674.2,35.5h1.8v48.4h-1.8V35.5z M1677.6,35.5h1.8v48.4h-1.8V35.5z M1686.8,35.5
		h1.8v48.4h-1.8V35.5z M1709.8,35.5h1.8v48.4h-1.8V35.5z M1733.8,35.5h1.8v48.4h-1.8V35.5z M1740.4,35.5h1.8v48.4h-1.8V35.5z
		 M1745.1,35.5h1.8v48.4h-1.8V35.5z M1748.1,35.5h1.8v48.4h-1.8V35.5z M1618.1,35.5h1.8v48.4h-1.8V35.5z M1599.9,35.5h3.3v48.4h-3.3
		V35.5z M1621.6,35.5h3.3v48.4h-3.3V35.5z M1636.8,35.5h3.3v48.4h-3.3V35.5z M1644.6,35.5h3.3v48.4h-3.3V35.5z M1656.8,35.5h3.3
		v48.4h-3.3V35.5z M1691.7,35.5h5.1v48.4h-5.1V35.5z M1698.4,35.5h4v48.4h-4V35.5z M1705.4,35.5h3.3v48.4h-3.3V35.5z M1714.7,35.5
		h5.5v48.4h-5.5V35.5z M1725.4,35.5h5.5v48.4h-5.5V35.5z M1609.7,35.5h6.6v48.4h-6.6V35.5z M1626.8,35.5h5.1v48.4h-5.1V35.5z"/>
	<path id="path6" class="st4" d="M1593.9,126.9V99.2h10.4c1.7-0.1,3.5,0.2,5.1,0.8c1.2,0.5,2.3,1.4,3,2.6c0.7,1.1,1.1,2.4,1.1,3.7
		c0,1.2-0.3,2.3-1,3.3c-0.7,1.1-1.7,2-2.9,2.5c1.5,0.4,2.9,1.3,3.9,2.5c0.9,1.2,1.4,2.7,1.4,4.2c0,1.3-0.3,2.5-0.8,3.6
		c-0.5,1-1.2,1.9-2,2.6c-0.9,0.7-1.9,1.1-3,1.4c-1.5,0.3-3,0.5-4.5,0.5H1593.9z M1597.5,110.9h6c1.2,0,2.3-0.1,3.5-0.3
		c0.8-0.2,1.6-0.7,2.1-1.4c0.5-0.7,0.7-1.6,0.7-2.4c0-0.9-0.2-1.7-0.7-2.4c-0.4-0.7-1.1-1.2-1.9-1.4c-1.4-0.3-2.8-0.4-4.2-0.4h-5.5
		V110.9z M1597.5,123.7h6.9c0.8,0,1.7,0,2.5-0.1c0.7-0.1,1.5-0.4,2.1-0.8c0.6-0.4,1.1-0.9,1.4-1.5c0.4-0.7,0.6-1.5,0.5-2.3
		c0-1-0.3-1.9-0.8-2.7c-0.5-0.8-1.3-1.3-2.2-1.6c-1.3-0.4-2.7-0.5-4.1-0.5h-6.4V123.7z M1620.2,113.4c-0.2-3.9,1.1-7.8,3.7-10.8
		c2.5-2.6,6-4,9.6-3.9c2.4,0,4.8,0.6,6.9,1.8c2,1.2,3.7,3,4.7,5.1c1.1,2.3,1.7,4.9,1.6,7.4c0,2.6-0.5,5.2-1.7,7.5
		c-1.1,2.1-2.7,3.9-4.8,5c-2.1,1.1-4.4,1.7-6.7,1.7c-2.5,0-4.9-0.6-7-1.9c-2-1.2-3.7-3-4.7-5.2
		C1620.7,118.2,1620.2,115.8,1620.2,113.4L1620.2,113.4z M1623.9,113.5c-0.2,2.9,0.8,5.7,2.7,7.9c1.7,1.9,4.2,2.9,6.8,2.9
		c2.6,0.1,5.1-1,6.8-2.9c1.9-2.3,2.9-5.3,2.7-8.3c0.1-2-0.3-4-1.1-5.9c-0.7-1.6-1.9-3-3.3-3.9c-1.5-0.9-3.2-1.4-4.9-1.4
		c-2.5,0-4.9,0.9-6.7,2.7C1624.6,107,1623.6,110.2,1623.9,113.5L1623.9,113.5z M1652.7,126.9V99.2h3.7v24.4h13.6v3.3H1652.7z
		 M1675.9,126.9V99.2h20v3.3h-16.4v8.5h15.3v3.3h-15.3v9.4h17v3.3H1675.9z M1710.1,126.9v-24.4h-9.1v-3.3h22v3.3h-9.2v24.4H1710.1z
		 M1726.3,113.4c-0.2-3.9,1.1-7.8,3.7-10.8c2.5-2.6,6-4,9.6-3.9c2.4,0,4.8,0.6,6.9,1.8c2,1.2,3.7,3,4.7,5.1c1.1,2.3,1.7,4.9,1.6,7.4
		c0,2.6-0.5,5.2-1.7,7.5c-1.1,2.1-2.7,3.9-4.8,5c-2.1,1.1-4.4,1.7-6.7,1.7c-2.5,0-4.9-0.6-7-1.9c-2-1.2-3.6-3-4.7-5.2
		C1726.8,118.2,1726.3,115.8,1726.3,113.4L1726.3,113.4z M1730.1,113.5c-0.2,2.9,0.8,5.7,2.7,7.9c1.7,1.9,4.2,2.9,6.8,2.9
		c2.6,0.1,5.1-1,6.8-2.9c1.9-2.3,2.9-5.3,2.7-8.3c0-2-0.4-4-1.2-5.9c-0.7-1.6-1.9-3-3.3-3.9c-1.5-0.9-3.2-1.4-4.9-1.4
		c-2.5,0-4.9,0.9-6.7,2.7C1730.8,107,1729.8,110.3,1730.1,113.5L1730.1,113.5z"/>
</g>
</svg>
