<svg xmlns="http://www.w3.org/2000/svg" xmlns:xlink="http://www.w3.org/1999/xlink" width="33" height="29" viewBox="0 0 33 29">
  <defs>
    <rect id="rect-1" width="33" height="29" x="0" y="0"/>
    <mask id="mask-2" maskContentUnits="userSpaceOnUse" maskUnits="userSpaceOnUse">
      <rect width="33" height="29" x="0" y="0" fill="black"/>
      <use fill="white" xlink:href="#rect-1"/>
    </mask>
  </defs>
  <g>
    <use fill="none" xlink:href="#rect-1"/>
    <g mask="url(#mask-2)">
      <path fill="rgb(0,125,165)" fill-rule="evenodd" d="M16.03470861 28.92893791c0-.07116699-.07159424-.07116699-.07159424-.07116699C13.95878087 27.79160881-.00002039 20.18626213-.00002039 10.1641674c0-5.04650878 2.79174804-10.16418457 9.09112548-10.16418457 3.79388428 0 6.15618897 1.91906739 7.37310791 3.69604493 1.28845215-1.77697754 3.65075684-3.69604493 7.44464112-3.69604493 6.29937744 0 9.09112549 5.11767579 9.01953125 10.16418457 0 10.02209473-13.95880127 17.6986084-15.96313477 18.69360352 0 .071167-.0715332.071167-.0715332.071167-.07159424.07104491-.14318848.07104491-.14318848.07104491-.14318847.07104493-.21478271.07104493-.28631592.07104493-.14318847 0-.21478271-.07104493-.28637695-.07104493 0 0-.07159424 0-.14312744-.07104492zm-.50109863-22.67407226c-.07159424-.21325684-1.43170166-4.1225586-6.44250489-4.1225586-5.22564697 0-7.08679199 4.33581543-7.08679199 8.03186035 0 8.03186036 11.88287354 15.35290528 14.38830567 16.70349122 2.57696533-1.27941895 14.45983886-8.60058594 14.45983886-16.6324463 0-3.69604492-1.86114502-8.03186035-7.08673095-8.03186035-5.01086426 0-6.37097168 3.98046875-6.44256592 4.1225586 0 .07104492-.0715332.21325683-.14312744.28430176l-.07159424.07116699-.21478272.21313476h-.0715332c0 .071167-.07159424.071167-.07159424.071167-.50109863.07104492-1.0737915-.21325684-1.21691894-.71081543z"/>
    </g>
  </g>
</svg>
