<svg xmlns="http://www.w3.org/2000/svg" xmlns:xlink="http://www.w3.org/1999/xlink" width="49" height="43.22" viewBox="0 0 49 43.22">
  <defs>
    <path id="path-1" fill-rule="evenodd" d="M49 13.90243902v2.19512196c-.049.14634146-.098.29268292-.098.43902439-.294 2.3902439-1.078 4.68292683-2.303 6.7804878C45.57 24.97560976 44.394 26.53658537 43.12 28c-1.666 1.90243902-3.479 3.70731707-5.39 5.36585366-1.764 1.51219512-3.528 3.02439024-5.39 4.3902439-2.45 1.85365854-4.998 3.56097561-7.497 5.31707317-.147.14634147-.441.14634147-.588 0-2.205-1.5609756-4.459-3.02439024-6.615-4.63414634-2.254-1.70731707-4.41-3.51219512-6.566-5.36585366-2.744-2.34146341-5.194-4.92682927-7.35-7.80487805C2.107 23.12195122.98 20.58536585.392 17.95121951c-.147-.63414634-.294-1.1707317-.392-1.75609756v-2.29268293c.049-.14634146.049-.24390243.098-.3902439.196-.97560975.343-1.95121951.686-2.92682927.98-3.1707317 3.234-5.90243902 6.223-7.5609756 2.744-1.6097561 6.027-2.14634147 9.163-1.56097562 3.087.48780488 5.88 2.0487805 7.938 4.3902439.098.14634147.196.29268293.245.4390244.539-.53658537.931-.92682927 1.372-1.31707317C31.017.04878049 39.2 0 44.492 4.87804878c2.009 1.80487805 3.381 4.14634146 4.067 6.73170732.196.7804878.294 1.5609756.441 2.29268292z"/>
    <mask id="mask-2" x="0" y="0" maskContentUnits="userSpaceOnUse" maskUnits="userSpaceOnUse">
      <rect width="49" height="43.22" x="0" y="0" fill="black"/>
      <use fill="white" xlink:href="#path-1"/>
    </mask>
  </defs>
  <use fill-opacity="0" stroke="#007DA5" stroke-linecap="butt" stroke-linejoin="miter" stroke-width="4" mask="url(#mask-2)" xlink:href="#path-1"/>
</svg>
