<?xml version="1.0" encoding="utf-8"?>
<!-- Generator: Adobe Illustrator 25.1.0, SVG Export Plug-In . SVG Version: 6.00 Build 0)  -->
<svg version="1.1" id="Camada_1" xmlns="http://www.w3.org/2000/svg" xmlns:xlink="http://www.w3.org/1999/xlink" x="0px" y="0px"
	 viewBox="0 0 35.5 32.9" style="enable-background:new 0 0 35.5 32.9;" xml:space="preserve">
<style type="text/css">
	.st0{fill-rule:evenodd;clip-rule:evenodd;fill:#FFFFFF;}
</style>
<path class="st0" d="M5.6,12.7c0.4-0.1,0.8-0.2,1.2-0.2c1.9,0,3.5,1.3,3.8,3.2l2.7-0.6c-0.6-3.1-3.3-5.4-6.5-5.4
	c-0.8,0-1.4,0.1-2.1,0.4C4.8,10.1,5.6,12.7,5.6,12.7z"/>
<path class="st0" d="M2.5,21.4l1.8-2.1c-0.8-0.8-1.3-1.8-1.3-3s0.5-2.2,1.3-3l-1.8-2.1c-1.3,1.3-2.2,3.2-2.2,5.2S1.1,20.2,2.5,21.4"
	/>
<path class="st0" d="M10.7,17.2c-0.4,1.8-1.9,3.2-3.8,3.2c-0.5,0-0.9-0.1-1.2-0.2l-0.9,2.6c0.7,0.2,1.3,0.4,2.1,0.4
	c3.2,0,5.9-2.3,6.5-5.4L10.7,17.2z"/>
<path class="st0" d="M15.4,18.9c0.1,0.2,0.2,0.4,0.3,0.6l7.3-3.3c0-0.1-0.1-0.2-0.1-0.4c-0.4-1-1-1.6-1.6-2
	c-1.2-0.7-2.5-0.8-3.7-0.3c-1,0.4-1.7,1.2-2.1,2.3C14.9,16.9,15,17.9,15.4,18.9z M18.1,15.2c-0.9,0.4-1.3,1.2-1.2,2.2l3.6-1.6
	C19.9,15,19.2,14.7,18.1,15.2z M21,18.6L21,18.6L21,18.6c-0.3,0.3-0.7,0.6-1.1,0.8c-0.9,0.4-1.5,0.3-2.1-0.2l-0.1,0.1l0,0l-1,1.4
	c0.2,0.2,0.5,0.3,0.8,0.4c1.1,0.5,2.1,0.4,3.1,0c0.8-0.3,1.3-0.9,1.7-1.4L21,18.6L21,18.6z"/>
<path class="st0" d="M25.5,11.5v7.8l1.2,0.5l-0.7,1.6l-1.3-0.6c-0.3-0.1-0.5-0.3-0.7-0.6c-0.2-0.2-0.3-0.6-0.3-1v-7.9L25.5,11.5
	L25.5,11.5z"/>
<path class="st0" d="M28.7,17.4c0-0.7,0.3-1.2,0.8-1.6l-1.2-1.4c-0.9,0.8-1.3,1.8-1.3,3.1c0,1.2,0.5,2.3,1.3,3.1l1.2-1.4
	C29,18.6,28.7,18,28.7,17.4"/>
<path class="st0" d="M30.9,19.6c-0.3,0-0.5,0-0.7-0.1l-0.6,1.8c0.4,0.1,0.9,0.2,1.2,0.2c1.9,0,3.6-1.4,3.9-3.3L33,17.8
	C32.8,18.8,31.9,19.6,30.9,19.6"/>
<path class="st0" d="M32.9,16.1c0.1,0.2,0.2,0.4,0.3,0.7l1.8-0.4c-0.1-0.4-0.3-0.9-0.5-1.2c-1-1.7-3.1-2.4-4.8-1.7l0.6,1.7
	C31.3,14.8,32.3,15.2,32.9,16.1"/>
</svg>
