<svg version="1.1" id="Camada_1" xmlns="http://www.w3.org/2000/svg" x="0" y="0" viewBox="0 0 35.5 32.9" style="enable-background:new 0 0 35.5 32.9" xml:space="preserve"><style>.st0{fill-rule:evenodd;clip-rule:evenodd;fill:#fff}</style><path class="st0" d="M5.6 12.7c.4-.1.8-.2 1.2-.2 1.9 0 3.5 1.3 3.8 3.2l2.7-.6C12.7 12 10 9.7 6.8 9.7c-.8 0-1.4.1-2.1.4.1 0 .9 2.6.9 2.6zM2.5 21.4l1.8-2.1c-.8-.8-1.3-1.8-1.3-3s.5-2.2 1.3-3l-1.8-2.1C1.2 12.5.3 14.4.3 16.4s.8 3.8 2.2 5M10.7 17.2c-.4 1.8-1.9 3.2-3.8 3.2-.5 0-.9-.1-1.2-.2l-.9 2.6c.7.2 1.3.4 2.1.4 3.2 0 5.9-2.3 6.5-5.4l-2.7-.6zM15.4 18.9l.3.6 7.3-3.3c0-.1-.1-.2-.1-.4-.4-1-1-1.6-1.6-2-1.2-.7-2.5-.8-3.7-.3-1 .4-1.7 1.2-2.1 2.3-.6 1.1-.5 2.1-.1 3.1zm2.7-3.7c-.9.4-1.3 1.2-1.2 2.2l3.6-1.6c-.6-.8-1.3-1.1-2.4-.6zm2.9 3.4c-.3.3-.7.6-1.1.8-.9.4-1.5.3-2.1-.2l-.1.1-1 1.4c.2.2.5.3.8.4 1.1.5 2.1.4 3.1 0 .8-.3 1.3-.9 1.7-1.4L21 18.6zM25.5 11.5v7.8l1.2.5-.7 1.6-1.3-.6c-.3-.1-.5-.3-.7-.6-.2-.2-.3-.6-.3-1v-7.9l1.8.2zM28.7 17.4c0-.7.3-1.2.8-1.6l-1.2-1.4c-.9.8-1.3 1.8-1.3 3.1 0 1.2.5 2.3 1.3 3.1l1.2-1.4c-.5-.6-.8-1.2-.8-1.8M30.9 19.6c-.3 0-.5 0-.7-.1l-.6 1.8c.4.1.9.2 1.2.2 1.9 0 3.6-1.4 3.9-3.3l-1.7-.4c-.2 1-1.1 1.8-2.1 1.8M32.9 16.1c.1.2.2.4.3.7l1.8-.4c-.1-.4-.3-.9-.5-1.2-1-1.7-3.1-2.4-4.8-1.7l.6 1.7c1-.4 2 0 2.6.9"/></svg>