<svg id="Camada_1" data-name="Camada 1" xmlns="http://www.w3.org/2000/svg" viewBox="0 0 112.05 223.21"><defs><style>.cls-1{fill:#000;}</style></defs><path class="cls-1" d="M188,32V68.71H167.08c-12.13,0-17.64,5.62-17.75,17.76-.12,6.74.22,13.37-.12,20.12-.22,4.94,1.24,7,6.52,6.74,8.54-.45,17.09-.11,25.74-.11,2,0,3.93.22,6.52.34-1.35,10.11-2.59,19.66-3.82,29.22-1.46,10.9-1.58,10.9-12.48,10.9-5.39,0-10.79.34-16.18-.11-5.06-.45-6.3,1.46-6.3,6.29.23,29.22.12,58.56.12,87.78,0,2.36-.23,4.72-.34,7.31H109.65c-.11-2.48-.45-4.84-.45-7.2v-85c0-9.89,1.13-9.1-8.88-9.1H75.93V113.22c8.88,0,17.54-.34,26.19.11,5.62.23,7.31-1.57,7.19-7.3-.22-11.36-.44-22.82.68-34.06,1.91-20,16-34.73,36-39a17.43,17.43,0,0,0,3-1.23C161.8,32,174.84,32,188,32Z" transform="translate(-75.93 -31.74)"/></svg>