<?xml version="1.0" encoding="utf-8"?>
<!-- Generator: Adobe Illustrator 24.0.0, SVG Export Plug-In . SVG Version: 6.00 Build 0)  -->
<svg version="1.1" id="Camada_1" xmlns="http://www.w3.org/2000/svg" xmlns:xlink="http://www.w3.org/1999/xlink" x="0px" y="0px"
	 viewBox="0 0 181.4 215.1" style="enable-background:new 0 0 181.4 215.1;" xml:space="preserve">
<style type="text/css">
	.st0{fill:#FFFFFF;}
</style>
<path class="st0" d="M126.9,16.6c0,10.7,0,21.4,0,32.7c-6.2,0-12.4,0-18.6,0c-10.8,0-15.7,5-15.8,15.8c-0.1,6,0.2,11.9-0.1,17.9
	c-0.2,4.4,1.1,6.2,5.8,6c7.6-0.4,15.2-0.1,22.9-0.1c1.8,0,3.5,0.2,5.8,0.3c-1.2,9-2.3,17.5-3.4,26c-1.3,9.7-1.4,9.7-11.1,9.7
	c-4.8,0-9.6,0.3-14.4-0.1c-4.5-0.4-5.6,1.3-5.6,5.6c0.2,26,0.1,52.1,0.1,78.1c0,2.1-0.2,4.2-0.3,6.5c-11.8,0-23.2,0-35,0
	c-0.1-2.2-0.4-4.3-0.4-6.4c0-25.2,0-50.4,0-75.6c0-8.8,1-8.1-7.9-8.1c-7.1,0-14.2,0-21.7,0c0-12,0-23.6,0-36
	c7.9,0,15.6-0.3,23.3,0.1c5,0.2,6.5-1.4,6.4-6.5c-0.2-10.1-0.4-20.3,0.6-30.3c1.7-17.8,14.2-30.9,32-34.7c0.9-0.2,1.8-0.7,2.7-1.1
	C103.6,16.6,115.2,16.6,126.9,16.6z"/>
</svg>
