<svg xmlns="http://www.w3.org/2000/svg" viewBox="0 0 35.5 32.9" style="enable-background:new 0 0 35.5 32.9" xml:space="preserve"><path d="M10.4 8.7H6.8c-1.5 0-2.8.7-3.1 1.9-.2.6-.3 1.4-.5 2.1-.7 3.5-1.4 7.1-2.2 10.5h27.3c2.1 0 3.5-.4 3.9-2.1.2-.8.3-1.6.6-2.5.6-3.3 1.4-6.5 2-9.9H10.4zM31.3 18h-.6c0-.2 0-.3.1-.5l-.2.2-.2.2c-.6.3-1.3.2-1.9-.2-.2-.2-.2-.6-.2-.8 0-1.6 1.1-2.9 2.9-2.3.1-.5.2-1 .2-1.5h.7c-.4 1.5-.7 3.2-.8 4.9zM9.9 13c-.1 0-.2.1-.3.2-.2.2-.2.4 0 .6.2.1.4.1.6 0 .2-.2.2-.5.1-.7-.2-.1-.2-.1-.4-.1zm-2.7 5c.2-.8.3-1.6.5-2.4-.7-.1-1.5-.1-2.3 0-.2.8-.3 1.6-.4 2.4h-.8c.3-1.6.6-3.3.9-4.9h.8c-.2.6-.2 1.3-.4 1.9.6.1 1.2 0 1.9 0h.5c.1-.6.2-1.3.3-2H9c-.3 1.6-.6 3.2-.9 4.9l-.9.1zm12.4-.7c.2.9 1.5.9 2.4.6.1-.2.1-.4.1-.6-.5.2-1.5.4-1.8-.2-.1-.2-.1-.5-.1-.6 0-.5.2-1 .5-1.4.6-.3 1.2-.4 1.8-.1 0-.2.1-.4.1-.6-.8-.3-1.8-.2-2.4.5-.7.7-1 1.6-.6 2.4zm-4.9-1.2h2.4c.1-.4.2-.7.1-1.1-.3-.5-.8-.7-1.4-.6-.5 0-1 .2-1.3.5-.5.6-.7 1.4-.6 2.1.2 1.1 1.6 1.1 2.8.8 0-.2.1-.4.1-.6-.6.3-1.2.3-1.9.1-.2-.2-.3-.7-.2-1.2zm-2.1 1.8c-.5.2-1.5.4-1.7-.2-.2.6-.2 1.3-.3 1.9h-.7c.3-1.7.6-3.3.9-5.1h.6c0 .1-.1.2-.1.3.5-.3 1.1-.5 1.7-.3 1.3.5.6 2.9-.4 3.4zm13-1.5c-.1.6-.2 1-.2 1.6h-.6c0-.2 0-.4.1-.6-.5.6-1.2.8-1.9.5-.4-.3-.6-.8-.4-1.3.2-.9 1.3-1 2.5-1 .1-.2.1-.3.1-.6-.2-.6-1.5-.2-1.9-.2.1-.2.1-.4.2-.6h.6c.9-.1 1.9-.2 1.9.6-.2.7-.3 1.1-.4 1.6zm-7.2-.6c-.2.7-.3 1.5-.4 2.3h-.7c.2-1.1.5-2.3.6-3.5h.6c-.1.2-.1.4-.1.6.2-.6.9-.8 1.4-.6 0 .2-.1.3-.1.5-.1-.1-.5-.1-.7 0-.3.1-.5.3-.6.7zm8.3 2.2c0-.4.1-.9.2-1.3.2-1 .4-2 1.5-1.7.1-.2.1-.3.1-.5-.6-.2-1.1 0-1.4.6.1-.2.1-.4.1-.6h-.6c-.2 1.2-.4 2.3-.6 3.5h.7zM9.3 14.6c-.2 1.2-.4 2.3-.6 3.5h.7c.2-1.2.4-2.3.6-3.5h-.7c0-.1 0 0 0 0zm6.5.3c-.5 0-.9.4-1 .8h1.7c.2-.7-.2-.8-.7-.8zm13.1 1.9c0-.9.4-1.9 1.1-1.9.3 0 .6 0 .9.2-.2 1-.2 2.6-1.3 2.6-.2 0-.4-.1-.6-.2-.1-.3-.1-.5-.1-.7zm-17.7-.6c.1-.3.1-.6.2-.9.4-.5 1.5-.6 1.6.2.1.6-.1 1.3-.5 1.9-.4.4-1.4.4-1.5-.3 0-.4.1-.7.2-.9zm12 .7c-.1.9 1 .8 1.4.4.2-.3.4-.7.4-1.2-.9-.1-1.7.1-1.8.8z" style="fill-rule:evenodd;clip-rule:evenodd;fill:#fff"/></svg>