<?xml version="1.0" encoding="utf-8"?>
<!-- Generator: Adobe Illustrator 25.1.0, SVG Export Plug-In . SVG Version: 6.00 Build 0)  -->
<svg version="1.1" id="Camada_1" xmlns="http://www.w3.org/2000/svg" xmlns:xlink="http://www.w3.org/1999/xlink" x="0px" y="0px"
	 viewBox="0 0 35.5 32.9" style="enable-background:new 0 0 35.5 32.9;" xml:space="preserve">
<style type="text/css">
	.st0{fill-rule:evenodd;clip-rule:evenodd;fill:#FFFFFF;}
</style>
<path class="st0" d="M10.4,8.7H6.8C5.3,8.7,4,9.4,3.7,10.6c-0.2,0.6-0.3,1.4-0.5,2.1C2.5,16.2,1.8,19.8,1,23.2h27.3
	c2.1,0,3.5-0.4,3.9-2.1c0.2-0.8,0.3-1.6,0.6-2.5c0.6-3.3,1.4-6.5,2-9.9H10.4L10.4,8.7z M31.3,18h-0.6c0-0.2,0-0.3,0.1-0.5
	c-0.1,0.1-0.1,0.1-0.2,0.2c-0.1,0.1-0.2,0.2-0.2,0.2c-0.6,0.3-1.3,0.2-1.9-0.2c-0.2-0.2-0.2-0.6-0.2-0.8c0-1.6,1.1-2.9,2.9-2.3
	c0.1-0.5,0.2-1,0.2-1.5h0.7C31.7,14.6,31.4,16.3,31.3,18L31.3,18L31.3,18z M9.9,13c-0.1,0-0.2,0.1-0.3,0.2c-0.2,0.2-0.2,0.4,0,0.6
	c0.2,0.1,0.4,0.1,0.6,0c0.2-0.2,0.2-0.5,0.1-0.7C10.1,13,10.1,13,9.9,13z M7.2,18c0.2-0.8,0.3-1.6,0.5-2.4c-0.7-0.1-1.5-0.1-2.3,0
	C5.2,16.4,5.1,17.2,5,18H4.2c0.3-1.6,0.6-3.3,0.9-4.9h0.8c-0.2,0.6-0.2,1.3-0.4,1.9c0.6,0.1,1.2,0,1.9,0c0.2,0,0.3,0,0.5,0
	c0.1-0.6,0.2-1.3,0.3-2H9c-0.3,1.6-0.6,3.2-0.9,4.9L7.2,18L7.2,18z M19.6,17.3c0.2,0.9,1.5,0.9,2.4,0.6l0,0c0.1-0.2,0.1-0.4,0.1-0.6
	c-0.5,0.2-1.5,0.4-1.8-0.2c-0.1-0.2-0.1-0.5-0.1-0.6c0-0.5,0.2-1,0.5-1.4c0.6-0.3,1.2-0.4,1.8-0.1c0-0.2,0.1-0.4,0.1-0.6
	c-0.8-0.3-1.8-0.2-2.4,0.5C19.5,15.6,19.2,16.5,19.6,17.3z M14.7,16.1c0.8,0,1.6,0,2.4,0l0,0c0.1-0.4,0.2-0.7,0.1-1.1
	c-0.3-0.5-0.8-0.7-1.4-0.6c-0.5,0-1,0.2-1.3,0.5c-0.5,0.6-0.7,1.4-0.6,2.1c0.2,1.1,1.6,1.1,2.8,0.8c0-0.2,0.1-0.4,0.1-0.6
	c-0.6,0.3-1.2,0.3-1.9,0.1C14.7,17.1,14.6,16.6,14.7,16.1z M12.6,17.9c-0.5,0.2-1.5,0.4-1.7-0.2c-0.2,0.6-0.2,1.3-0.3,1.9H9.9
	c0.3-1.7,0.6-3.3,0.9-5.1h0.6c0,0.1-0.1,0.2-0.1,0.3c0.5-0.3,1.1-0.5,1.7-0.3C14.3,15,13.6,17.4,12.6,17.9L12.6,17.9L12.6,17.9z
	 M25.6,16.4c-0.1,0.6-0.2,1-0.2,1.6h-0.6c0-0.2,0-0.4,0.1-0.6c-0.5,0.6-1.2,0.8-1.9,0.5c-0.4-0.3-0.6-0.8-0.4-1.3
	c0.2-0.9,1.3-1,2.5-1c0.1-0.2,0.1-0.3,0.1-0.6c-0.2-0.6-1.5-0.2-1.9-0.2c0.1-0.2,0.1-0.4,0.2-0.6c0.2,0,0.3,0,0.6,0
	c0.9-0.1,1.9-0.2,1.9,0.6C25.8,15.5,25.7,15.9,25.6,16.4L25.6,16.4z M18.4,15.8c-0.2,0.7-0.3,1.5-0.4,2.3h-0.7
	c0.2-1.1,0.5-2.3,0.6-3.5h0.6c-0.1,0.2-0.1,0.4-0.1,0.6c0.2-0.6,0.9-0.8,1.4-0.6c0,0.2-0.1,0.3-0.1,0.5C19.6,15,19.2,15,19,15.1
	C18.7,15.2,18.5,15.4,18.4,15.8L18.4,15.8L18.4,15.8z M26.7,18c0-0.4,0.1-0.9,0.2-1.3l0,0c0.2-1,0.4-2,1.5-1.7
	c0.1-0.2,0.1-0.3,0.1-0.5c-0.6-0.2-1.1,0-1.4,0.6c0.1-0.2,0.1-0.4,0.1-0.6h-0.6c-0.2,1.2-0.4,2.3-0.6,3.5C25.9,18,26.7,18,26.7,18z
	 M9.3,14.6c-0.2,1.2-0.4,2.3-0.6,3.5h0.7c0.2-1.2,0.4-2.3,0.6-3.5H9.3C9.3,14.5,9.3,14.6,9.3,14.6z M15.8,14.9c-0.5,0-0.9,0.4-1,0.8
	h1.7C16.7,15,16.3,14.9,15.8,14.9z M28.9,16.8c0-0.9,0.4-1.9,1.1-1.9l0,0c0.3,0,0.6,0,0.9,0.2c-0.2,1-0.2,2.6-1.3,2.6
	c-0.2,0-0.4-0.1-0.6-0.2C28.9,17.2,28.9,17,28.9,16.8z M11.2,16.2c0.1-0.3,0.1-0.6,0.2-0.9c0.4-0.5,1.5-0.6,1.6,0.2
	c0.1,0.6-0.1,1.3-0.5,1.9c-0.4,0.4-1.4,0.4-1.5-0.3C11,16.7,11.1,16.4,11.2,16.2z M23.2,16.9c-0.1,0.9,1,0.8,1.4,0.4
	c0.2-0.3,0.4-0.7,0.4-1.2C24.1,16,23.3,16.2,23.2,16.9z"/>
</svg>
