<?xml version="1.0" encoding="utf-8"?>
<!-- Generator: Adobe Illustrator 24.0.0, SVG Export Plug-In . SVG Version: 6.00 Build 0)  -->
<svg version="1.1" id="Camada_1" xmlns="http://www.w3.org/2000/svg" xmlns:xlink="http://www.w3.org/1999/xlink" x="0px" y="0px"
	 viewBox="0 0 237.6 215.1" style="enable-background:new 0 0 237.6 215.1;" xml:space="preserve">
<style type="text/css">
	.st0{fill:#FFFFFF;}
</style>
<g>
	<path class="st0" d="M84.9,16.7c23.9,0,47.8,0,71.6,0c2.7,0.4,5.4,1.1,8.1,1.2c29,1.3,49.3,19.6,52.4,48.4
		c1.4,13.3,1.1,26.7,1.5,40.1c0.1,2.3,0.4,4.6,0.6,6.8c0,1.3,0,2.7,0,4c-0.2,2.3-0.5,4.6-0.6,6.8c-0.5,14.1-0.1,28.2-1.6,42.1
		c-2.9,28.1-22.8,47.2-51.2,48c-30.1,0.9-60.3,0.9-90.4,0c-29.6-0.9-51-22.5-51.8-51.9c-0.8-29.9-1-59.9,0-89.9
		c1-29.5,17.3-49.3,47.1-53.7C75.5,18,80.2,17.4,84.9,16.7z M120.8,34.7c0-0.1,0-0.2,0-0.3c-8.5,0-16.9-0.3-25.4,0.1
		c-8.7,0.4-17.6,0.6-26.2,2.1c-14.9,2.6-25,12.8-27.3,27.8c-1.6,10.6-2.5,21.4-2.6,32.1c-0.2,19.8-0.1,39.7,1,59.5
		c0.4,8,2.4,16.6,5.9,23.7c6.5,13.1,19.3,17.3,32.9,17.7c23.3,0.7,46.7,0.8,70.1,0.7c7.6,0,15.2-0.8,22.7-2.2
		c15.2-2.9,24.7-12.2,27.6-27.5c1.4-7.1,2.1-14.4,2.1-21.7c0.2-23.5,0.1-47.1-0.4-70.6c-0.2-10.5-2.3-20.7-9.7-29
		c-8.6-9.6-20-11.9-32-12.4C146.6,34.3,133.7,34.7,120.8,34.7z"/>
	<path class="st0" d="M170.6,116.2c1.5,25.9-21.2,50.9-49.5,50.7C92.9,166.8,70,144,70.3,116c0.4-28.4,22.5-49.8,50.7-50.4
		C147.4,65.1,172.1,89,170.6,116.2z M87.8,116.1c0,18.9,14.3,33.5,33.1,33.6c18.1,0.1,33-14.9,33-33.3c0-18.5-14.6-33.5-32.7-33.6
		C102.4,82.7,87.8,97.3,87.8,116.1z"/>
	<path class="st0" d="M184.5,63.4c-0.1,6.6-4.8,11.2-11.4,11.2c-6.2-0.1-11.4-5.3-11.3-11.4c0.1-6.5,5.4-11.6,11.9-11.4
		C180.1,51.8,184.6,56.7,184.5,63.4z"/>
</g>
</svg>
