<svg id="Camada_1" data-name="Camada 1" xmlns="http://www.w3.org/2000/svg" viewBox="0 0 225.45 227.52"><defs><style>.cls-1{fill:#fff;}</style></defs><path class="cls-1" d="M95.35,26h82.24a88.5,88.5,0,0,0,9.31,1.37c33.31,1.5,56.63,22.52,60.19,55.6,1.61,15.28,1.26,30.67,1.72,46.06.11,2.64.46,5.28.69,7.81v4.59c-.23,2.65-.58,5.29-.69,7.82-.57,16.19-.11,32.39-1.84,48.35-3.33,32.28-26.19,54.22-58.81,55.14-34.57,1-69.26,1-103.84,0-34-1-58.58-25.85-59.5-59.62-.92-34.34-1.15-68.8,0-103.26C26,56,44.69,33.22,78.92,28.17,84.55,27.48,90,26.79,95.35,26Zm41.24,20.67v-.34c-9.77,0-19.42-.35-29.18.11-10,.46-20.22.69-30.09,2.41C60.2,51.83,48.6,63.55,46,80.78a263,263,0,0,0-3,36.87c-.23,22.74-.11,45.6,1.15,68.34a71.43,71.43,0,0,0,6.78,27.23c7.46,15,22.17,19.87,37.79,20.33,26.76.8,53.64.92,80.52.8a141.65,141.65,0,0,0,26.07-2.53c17.46-3.33,28.37-14,31.71-31.58a129.55,129.55,0,0,0,2.41-24.93c.23-27,.11-54.1-.46-81.09-.23-12.07-2.64-23.78-11.14-33.32-9.88-11-23-13.66-36.76-14.24C166.22,46.2,151.4,46.66,136.59,46.66Z" transform="translate(-24.04 -25.99)"/><path class="cls-1" d="M193.79,140.28c1.72,29.75-24.35,58.46-56.86,58.23s-58.7-26.3-58.35-58.46c.46-32.63,25.84-57.21,58.24-57.9C167.14,81.58,195.51,109,193.79,140.28Zm-95.11-.12c0,21.71,16.43,38.48,38,38.6,20.79.11,37.91-17.12,37.91-38.25s-16.77-38.48-37.56-38.6a37.69,37.69,0,0,0-38.37,37C98.68,139.33,98.67,139.74,98.68,140.16Z" transform="translate(-24.04 -25.99)"/><path class="cls-1" d="M209.76,79.63A12.56,12.56,0,0,1,197.53,92.5c-.29,0-.58,0-.87,0a13.11,13.11,0,1,1-.16-26.21l.85,0C204.7,66.3,209.87,71.93,209.76,79.63Z" transform="translate(-24.04 -25.99)"/></svg>