<svg xmlns="http://www.w3.org/2000/svg" xmlns:xlink="http://www.w3.org/1999/xlink" width="19" height="22" viewBox="0 0 19 22">
  <defs>
    <rect id="rect-1" width="19" height="22" x="0" y="0"/>
    <mask id="mask-2" maskContentUnits="userSpaceOnUse" maskUnits="userSpaceOnUse">
      <rect width="19" height="22" x="0" y="0" fill="black"/>
      <use fill="white" xlink:href="#rect-1"/>
    </mask>
  </defs>
  <g>
    <use fill="none" xlink:href="#rect-1"/>
    <g mask="url(#mask-2)">
      <path fill="rgb(189,189,189)" fill-rule="evenodd" d="M13.23217773 1.375h5.0892334C18.69470215 1.375 19 1.6843872 19 2.0625v1.375c0 .3781128-.30529785.6875-.67858887.6875H.67858887C.30529785 4.125 0 3.8156128 0 3.4375v-1.375c0-.3781128.30529785-.6875.67858887-.6875h5.0892334L6.1665039.57147217C6.33618164.21914673 6.68811035 0 7.07409668 0h4.84753418c.38598633 0 .73791504.21914673.91186523.57147217L13.23217773 1.375zM4.28771973 22c-1.07299805 0-1.96362305-.84649658-2.03149414-1.93359375L1.35717773 5.5h16.2857666l-.89916992 14.56640625C16.67590332 21.15350342 15.78527832 22 14.71228027 22H4.28771973z"/>
    </g>
  </g>
</svg>
