<svg xmlns="http://www.w3.org/2000/svg" width="26.457" height="26.439" viewBox="0 0 26.457 26.439">
  <path fill="rgb(0,125,165)" fill-rule="evenodd" d="M10.72436523 21.41819763c1.78466797 0 3.5267334-.42462921 5.09887696-1.31636047l5.48132324 5.47776794c1.14733887 1.1465149 2.97436523 1.1465149 4.1217041 0l.16992188-.16984558c1.1472168-1.1465149 1.1472168-2.97244263 0-4.11895752l-5.48132325-5.47776031c2.80444336-5.1805191.89233399-11.67740631-4.29162597-14.52244568C10.63940429-1.51198578 4.13830566.39886475 1.2915039 5.57938385c-2.80444336 5.18052673-.89233399 11.67741394 4.2915039 14.5224533 1.61462403.84926606 3.35681153 1.31636048 5.14135742 1.31636048zm8.75317383-10.74320984c0-4.84082031-3.90917969-8.74744415-8.75317383-8.74744415-4.84387207.04246521-8.75305175 3.94908905-8.75305175 8.74744415 0 4.84081269 3.90917968 8.74743653 8.75305175 8.74743653 4.84399414 0 8.75317383-3.90662384 8.75317383-8.74743653zm4.75878906 11.97465515c.3824463.38217164.3824463.97665406 0 1.35882569l-.16992187.16984558c-.38244629.38217163-.97729492.38217163-1.35974121 0l-5.22631836-5.22298431q.82849121-.70064545 1.52966309-1.5286789l5.22631836 5.22299194z"/>
</svg>
