<svg version="1.1" id="Camada_1" xmlns="http://www.w3.org/2000/svg" x="0" y="0" viewBox="0 0 35.5 32.9" style="enable-background:new 0 0 35.5 32.9" xml:space="preserve"><style>.st1{fill-rule:evenodd;clip-rule:evenodd;fill:#fff}</style><path style="fill:none" d="M-3.8-1.2h42.5v34.7H-3.8z"/><path class="st1" d="M32.3 29.2v-3.9h-.6v1.5c-.2-.3-.5-.4-.9-.4-.8 0-1.5.7-1.5 1.5s.7 1.5 1.5 1.5c.3 0 .7-.1.9-.4v.3h.6zm-17.9-2.7h1v.5h-1v1.3c0 .3.1.5.4.5.2 0 .4-.1.6-.2l.2.5c-.2.1-.5.2-.8.2-.7 0-1-.4-1-1.1v-1.3h-.6v-.6h.6v-.9h.6v1.1zm7.2 2.4c-.3-.3-.4-.7-.4-1.1 0-.4.1-.8.4-1.1s.7-.4 1.1-.4c.4 0 .7.1 1 .3l-.3.5c-.2-.2-.5-.3-.7-.3-.5 0-.8.4-.8.9s.4.9.8.9c.3 0 .5-.1.7-.3l.3.5c-.3.2-.7.4-1 .3-.4.2-.8.1-1.1-.2zm-1.1-2.5c-.3 0-.6.2-.8.4v-.3h-.6v2.7h.6v-1.6c0-.5.2-.7.6-.7.1 0 .3 0 .4.1l.2-.6h-.4zm8.4 0c-.3 0-.6.2-.8.4v-.3h-.6v2.7h.6v-1.6c0-.5.2-.7.6-.7.1 0 .3 0 .4.1l.2-.6h-.4zm-22.5 1v1.7h-.6v-1.6c0-.5-.2-.7-.6-.7-.2 0-.4.1-.5.2-.1.1-.2.3-.2.5v1.6h-.6v-1.6c0-.5-.2-.7-.6-.7-.2 0-.4.1-.5.2s-.2.3-.2.5v1.6H2v-2.7h.6v.4c.2-.3.5-.4.8-.4.4 0 .7.2.9.5.2-.3.6-.5 1-.5.3 0 .6.1.8.3.2.1.3.4.3.7zm5.2-1c.4 0 .8.1 1.2.3l-.3.5c-.3-.2-.6-.2-.9-.2-.3 0-.5.1-.5.3s.2.2.5.3h.3c.6.1 1 .3 1 .9s-.5.9-1.3.9c-.4 0-.9-.1-1.2-.4l.3-.5c.3.2.6.3 1 .3s.7-.1.7-.3c0-.2-.2-.2-.5-.3h-.3c-.6-.1-1-.4-1-.8-.2-.8.3-1 1-1zm-1.8 2.8v-2.7h-.6v.3c-.2-.3-.5-.4-.9-.4-.8 0-1.5.7-1.5 1.5s.7 1.5 1.5 1.5c.3 0 .7-.1.9-.4v.3h.6zm17 0v-2.7h-.6v.3c-.2-.3-.5-.4-.9-.4-.8 0-1.5.7-1.5 1.5s.7 1.5 1.5 1.5c.3 0 .7-.1.9-.4v.3h.6zm-9.6-2.8c-.8 0-1.5.7-1.5 1.5s.7 1.5 1.5 1.5c.4 0 .9-.1 1.2-.4l-.3-.5c-.2.2-.5.3-.8.3-.4 0-.8-.3-.9-.7h2v-.2c.2-1-.4-1.5-1.2-1.5zm.5.7c-.1-.1-.3-.2-.5-.2-.4 0-.7.3-.8.7h1.5c.1-.2 0-.4-.2-.5zm7.7-.1c-.5 0-.9.3-.9.8 0 .2.1.5.2.6.2.2.4.3.6.3.5 0 .9-.4.9-.8 0-.5-.4-.9-.8-.9zm-17 0c-.5 0-.9.3-.9.8 0 .2.1.5.2.6.2.2.4.3.6.3.5 0 .9-.4.9-.8 0-.5-.3-.9-.8-.9zM31 27c-.5 0-.9.3-.9.8 0 .2.1.5.2.6.2.2.4.3.6.3.5 0 .9-.4.9-.8 0-.5-.3-.9-.8-.9zm2.5 1.8h-.2s-.1 0-.1.1c0 0 0 .1-.1.1v.2c0 .1.2.2.3.2h.1s.1 0 .1-.1c0 0 0-.1.1-.1V29l-.2-.2c.1.1 0 0 0 0zm-.1.5c.1 0 .1 0 .2-.1s.1-.2 0-.3h-.4c-.1.1-.1.2 0 .3 0 .1.1.1.2.1-.1 0-.1 0 0 0zm.1-.3c-.1 0-.1 0 0 0h-.2v.3h.1v-.1l.1.1h.1l-.1-.1h.1c-.1-.1-.1-.1-.1-.2zm-.2 0c.1.1.1.1 0 0 .1 0 .1 0 0 0z"/><path style="fill:#bab5b5" d="M66.7.9h9.1v16.3h-9.1z" transform="translate(-53.51 4.463)"/><path class="st1" d="M67.3 9.2c0-3.2 1.5-6.2 4-8.1-4.3-3.5-10.4-3-14.1 1-3.8 4-3.7 10.1 0 14s9.9 4.5 14.1 1.2c-2.5-2-4-5-4-8.1z" transform="translate(-53.51 4.463)"/><path d="M88.2 9.2c0 4-2.3 7.6-5.9 9.3s-7.8 1.3-11-1.2c2.5-1.9 4-4.9 4-8.1S73.8 3 71.3 1c3.1-2.4 7.5-2.9 11-1.2s5.9 5.4 5.9 9.4z" style="fill-rule:evenodd;clip-rule:evenodd;fill:#e8e8e8" transform="translate(-53.51 4.463)"/></svg>