<?xml version="1.0" encoding="utf-8"?>
<!-- Generator: Adobe Illustrator 25.1.0, SVG Export Plug-In . SVG Version: 6.00 Build 0)  -->
<svg version="1.1" id="Camada_1" xmlns="http://www.w3.org/2000/svg" xmlns:xlink="http://www.w3.org/1999/xlink" x="0px" y="0px"
	 viewBox="0 0 35.5 32.9" style="enable-background:new 0 0 35.5 32.9;" xml:space="preserve">
<style type="text/css">
	.st0{fill:none;}
	.st1{fill-rule:evenodd;clip-rule:evenodd;fill:#FFFFFF;}
	.st2{fill:#BAB5B5;}
	.st3{fill-rule:evenodd;clip-rule:evenodd;fill:#E8E8E8;}
</style>
<rect x="-3.8" y="-1.2" class="st0" width="42.5" height="34.7"/>
<path class="st1" d="M32.3,29.2v-3.9h-0.6v1.5c-0.2-0.3-0.5-0.4-0.9-0.4c-0.8,0-1.5,0.7-1.5,1.5s0.7,1.5,1.5,1.5
	c0.3,0,0.7-0.1,0.9-0.4v0.3H32.3z M14.4,26.5h1V27h-1v1.3c0,0.3,0.1,0.5,0.4,0.5c0.2,0,0.4-0.1,0.6-0.2l0.2,0.5
	c-0.2,0.1-0.5,0.2-0.8,0.2c-0.7,0-1-0.4-1-1.1v-1.3h-0.6v-0.6h0.6v-0.9h0.6V26.5z M21.6,28.9c-0.3-0.3-0.4-0.7-0.4-1.1l0,0
	c0-0.4,0.1-0.8,0.4-1.1s0.7-0.4,1.1-0.4c0.4,0,0.7,0.1,1,0.3l-0.3,0.5c-0.2-0.2-0.5-0.3-0.7-0.3c-0.5,0-0.8,0.4-0.8,0.9
	s0.4,0.9,0.8,0.9c0.3,0,0.5-0.1,0.7-0.3l0.3,0.5c-0.3,0.2-0.7,0.4-1,0.3C22.3,29.3,21.9,29.2,21.6,28.9z M20.5,26.4
	c-0.3,0-0.6,0.2-0.8,0.4v-0.3h-0.6v2.7h0.6v-1.6c0-0.5,0.2-0.7,0.6-0.7c0.1,0,0.3,0,0.4,0.1l0.2-0.6C20.8,26.4,20.6,26.4,20.5,26.4
	L20.5,26.4z M28.9,26.4c-0.3,0-0.6,0.2-0.8,0.4v-0.3h-0.6v2.7h0.6v-1.6c0-0.5,0.2-0.7,0.6-0.7c0.1,0,0.3,0,0.4,0.1l0.2-0.6
	C29.1,26.4,29,26.4,28.9,26.4L28.9,26.4z M6.4,27.4v1.7H5.8v-1.6c0-0.5-0.2-0.7-0.6-0.7c-0.2,0-0.4,0.1-0.5,0.2
	c-0.1,0.1-0.2,0.3-0.2,0.5v1.6H3.9v-1.6c0-0.5-0.2-0.7-0.6-0.7c-0.2,0-0.4,0.1-0.5,0.2s-0.2,0.3-0.2,0.5v1.6H2v-2.7h0.6v0.4
	c0.2-0.3,0.5-0.4,0.8-0.4c0.4,0,0.7,0.2,0.9,0.5c0.2-0.3,0.6-0.5,1-0.5c0.3,0,0.6,0.1,0.8,0.3C6.3,26.8,6.4,27.1,6.4,27.4z
	 M11.6,26.4c0.4,0,0.8,0.1,1.2,0.3l-0.3,0.5c-0.3-0.2-0.6-0.2-0.9-0.2c-0.3,0-0.5,0.1-0.5,0.3s0.2,0.2,0.5,0.3h0.3
	c0.6,0.1,1,0.3,1,0.9s-0.5,0.9-1.3,0.9c-0.4,0-0.9-0.1-1.2-0.4l0.3-0.5c0.3,0.2,0.6,0.3,1,0.3s0.7-0.1,0.7-0.3
	c0-0.2-0.2-0.2-0.5-0.3h-0.3c-0.6-0.1-1-0.4-1-0.8C10.4,26.6,10.9,26.4,11.6,26.4z M9.8,29.2v-2.7H9.2v0.3c-0.2-0.3-0.5-0.4-0.9-0.4
	c-0.8,0-1.5,0.7-1.5,1.5s0.7,1.5,1.5,1.5c0.3,0,0.7-0.1,0.9-0.4v0.3H9.8z M26.8,29.2v-2.7h-0.6v0.3c-0.2-0.3-0.5-0.4-0.9-0.4
	c-0.8,0-1.5,0.7-1.5,1.5s0.7,1.5,1.5,1.5c0.3,0,0.7-0.1,0.9-0.4v0.3H26.8z M17.2,26.4c-0.8,0-1.5,0.7-1.5,1.5s0.7,1.5,1.5,1.5
	c0.4,0,0.9-0.1,1.2-0.4l-0.3-0.5c-0.2,0.2-0.5,0.3-0.8,0.3c-0.4,0-0.8-0.3-0.9-0.7h2v-0.2C18.6,26.9,18,26.4,17.2,26.4L17.2,26.4z
	 M17.7,27.1c-0.1-0.1-0.3-0.2-0.5-0.2l0,0c-0.4,0-0.7,0.3-0.8,0.7h1.5C18,27.4,17.9,27.2,17.7,27.1z M25.4,27
	c-0.5,0-0.9,0.3-0.9,0.8c0,0.2,0.1,0.5,0.2,0.6c0.2,0.2,0.4,0.3,0.6,0.3c0.5,0,0.9-0.4,0.9-0.8C26.2,27.4,25.8,27,25.4,27z M8.4,27
	c-0.5,0-0.9,0.3-0.9,0.8l0,0c0,0.2,0.1,0.5,0.2,0.6c0.2,0.2,0.4,0.3,0.6,0.3c0.5,0,0.9-0.4,0.9-0.8C9.2,27.4,8.9,27,8.4,27z M31,27
	c-0.5,0-0.9,0.3-0.9,0.8c0,0.2,0.1,0.5,0.2,0.6c0.2,0.2,0.4,0.3,0.6,0.3c0.5,0,0.9-0.4,0.9-0.8C31.8,27.4,31.5,27,31,27z M33.5,28.8
	L33.5,28.8h-0.2c0,0-0.1,0-0.1,0.1c0,0,0,0.1-0.1,0.1c0,0.1,0,0.1,0,0.2c0,0.1,0.2,0.2,0.3,0.2h0.1c0,0,0.1,0,0.1-0.1
	c0,0,0-0.1,0.1-0.1c0-0.1,0-0.1,0-0.2C33.6,28.9,33.6,28.9,33.5,28.8C33.6,28.9,33.5,28.8,33.5,28.8z M33.4,29.3L33.4,29.3
	c0.1,0,0.1,0,0.2-0.1c0.1-0.1,0.1-0.2,0-0.3c0,0,0,0-0.1,0h-0.1h-0.1h-0.1c-0.1,0.1-0.1,0.2,0,0.3C33.2,29.3,33.3,29.3,33.4,29.3
	C33.3,29.3,33.3,29.3,33.4,29.3L33.4,29.3z M33.5,29C33.4,29,33.4,29,33.5,29h-0.2v0.3h0.1v-0.1l0,0l0.1,0.1h0.1l-0.1-0.1
	c0,0,0,0,0.1,0C33.5,29.1,33.5,29.1,33.5,29L33.5,29z M33.3,29L33.3,29L33.3,29C33.4,29.1,33.4,29.1,33.3,29L33.3,29L33.3,29
	C33.4,29,33.4,29,33.3,29L33.3,29z"/>
<g transform="translate(-53.51020408 4.46280992)">
	<rect x="66.7" y="0.9" class="st2" width="9.1" height="16.3"/>
	<path class="st1" d="M67.3,9.2c0-3.2,1.5-6.2,4-8.1C67-2.4,60.9-1.9,57.2,2.1c-3.8,4-3.7,10.1,0,14s9.9,4.5,14.1,1.2
		C68.8,15.3,67.3,12.3,67.3,9.2z"/>
	<path class="st3" d="M88.2,9.2c0,4-2.3,7.6-5.9,9.3s-7.8,1.3-11-1.2c2.5-1.9,4-4.9,4-8.1S73.8,3,71.3,1c3.1-2.4,7.5-2.9,11-1.2
		S88.2,5.2,88.2,9.2L88.2,9.2z"/>
</g>
</svg>
