<svg xmlns="http://www.w3.org/2000/svg" xmlns:xlink="http://www.w3.org/1999/xlink" width="45" height="49.057" viewBox="0 0 45 49.057">
  <defs>
    <path id="path-1" fill-rule="evenodd" d="M-528.46327848-772.15491717h44.83322504v46.3824593h-44.83322504v-46.3824593z"/>
    <mask id="mask-2" maskContentUnits="userSpaceOnUse" maskUnits="userSpaceOnUse">
      <rect width="45" height="49.057" x="0" y="0" fill="black"/>
      <use fill="white" xlink:href="#path-1"/>
    </mask>
  </defs>
  <g>
    <g transform="translate(-528.46333826 -772.22238988)">
      <use fill="none" xlink:href="#path-1"/>
      <g mask="url(#mask-2)">
        <path fill="rgb(0,125,165)" fill-rule="evenodd" d="M-486.74751557-759.5466055c2.7765274 1.47075462 3.90882492 4.95692348 2.52767182 7.7706976-.71279526 1.45656203-.71279526 4.11066245.00177765 5.56900023 1.3811531 2.8137722.24885559 6.29994202-2.52767182 7.77069855-1.4362564.75932694-2.99872208 2.90779877-3.27957535 4.50452042-.5314865 3.03199005-3.48754501 5.24433136-6.62136078 4.80257416-1.70111084-.23418427-4.1576805.6120758-5.30597686 1.71913147-1.09319115 1.05561065-2.5490017 1.63752365-4.09368897 1.63752365-1.54468918 0-3.00049972-.581913-4.09369087-1.63752365-1.1465168-1.10705567-3.61908531-1.95331574-5.30419922-1.71913147-3.15159035.4417572-6.09165335-1.77058411-6.62313986-4.80257416-.28085232-1.59672165-1.8433156-3.74519348-3.27957344-4.50452042-2.77652806-1.47075653-3.90882534-4.95692634-2.52767151-7.77069855.71279627-1.45833778.71279627-4.1124382 0-5.56900024-1.38115383-2.8137741-.24885655-6.29994297 2.52767151-7.7706976 1.43625784-.75932884 2.99872112-2.90780257 3.27957344-4.50452136.53148651-3.031991 3.4928794-5.23546267 6.62136221-4.80257464 1.70466805.23773384 4.15768242-.6103015 5.30597687-1.71913361 2.1863823-2.10944271 5.9992199-2.10944271 8.18560219 0 1.1465187 1.10883212 3.62086296 1.95686745 5.30420112 1.71913361 3.1569233-.43288803 6.09165383 1.77058363 6.62314034 4.80257464.28084946 1.59671879 1.84331512 3.74519252 3.27957153 4.50452137zm-23.88667297-3.4098816c3.08226585 0 5.59216118 2.50329972 5.59216118 5.581419 0 3.07811641-2.50811768 5.5796423-5.59216118 5.5796423s-5.59038544-2.50152589-5.59038544-5.5796423c0-3.07811928 2.50811958-5.581419 5.59038544-5.581419zm-2.55433464 23.60127926l16.79959297-16.76732444c.69324493-.69191075.69501877-1.81493664 0-2.50862217-.69502068-.69368553-1.81842995-.69368553-2.51344872 0l-16.79959487 16.76731968c-.69502259.69368553-.69502259 1.8149395 0 2.50862693.34662056.3459549.80167198.51981736 1.2567253.51981736.45505143 0 .91010285-.17386246 1.25672532-.51981736zm6.13786888-1.25431442c0 3.07812119 2.50989532 5.5814209 5.59216118 5.5814209 3.08226776 0 5.59038353-2.50329971 5.59038353-5.5814209 0-3.07811928-2.50633812-5.57964516-5.59038353-5.57964516-3.0840435 0-5.59216118 2.50152588-5.59216118 5.57964516z"/>
      </g>
    </g>
    <path fill="rgb(0,125,165)" fill-rule="evenodd" d="M-501.45849211-742.38400912c1.12340956 0 2.03529106.91012963 2.03529106 2.03138096 0 1.12125132-.9118815 2.03138095-2.03529106 2.03138095s-2.03529106-.91012963-2.03529106-2.03138095c0-1.12125133.9118815-2.03138096 2.03529106-2.03138096"/>
    <path fill="none" d="M-496.3889287-756.12253127l-16.7995946 16.76732003c-.34662162.3459557-.8016736.51982063-1.25672557.51982063s-.91010395-.17386492-1.25672557-.51982063c-.69502079-.69368555-.69502079-1.81493688 0-2.50862243l16.7995946-16.76732002c.69502079-.69368555 1.81843035-.69368555 2.51345114 0 .69502079.69368555.69324324 1.816711 0 2.50862242"/>
    <path fill="none" d="M-501.45849211-735.02810368c-3.08226611 0-5.59216216-2.50330003-5.59216216-5.58141877 0-3.07811875 2.5081185-5.57964464 5.59216216-5.57964464s5.59038461 2.5015259 5.59038461 5.57964464-2.5081185 5.58141877-5.59038461 5.58141877"/>
    <path fill="none" d="M-510.63418858-762.95648711c3.08226612 0 5.59216217 2.50330002 5.59216217 5.58141877 0 3.07811874-2.5081185 5.57964463-5.59216217 5.57964463-3.08404366 0-5.59038461-2.5015259-5.59038461-5.57964463 0-3.07811875 2.5081185-5.58141877 5.59038461-5.58141877"/>
    <path fill="none" d="M-484.21984346-751.77590826c1.38115384-2.8137731.24885655-6.29994216-2.52767152-7.77069746-1.4362578-.75932842-2.99872141-2.90780208-3.2795738-4.50452074-.5314865-3.03199131-3.46621622-5.23546306-6.6231393-4.8025749-1.6833368.23773368-4.15768191-.61030134-5.30419958-1.71913374-2.18638254-2.10944276-5.99922038-2.10944276-8.18560291 0-1.14829522 1.1088324-3.60130977 1.95686742-5.30597713 1.71913375-3.12848233-.43288817-6.08987526 1.77058358-6.62136175 4.8025749-.28085239 1.59671865-1.843316 3.7451923-3.2795738 4.50452073-2.77652807 1.4707553-3.90882537 4.95692436-2.52767152 7.77069746.71279626 1.45656224.71279626 4.11066348 0 5.56899985-1.38115385 2.8137731-.24885655 6.29994216 2.52767152 7.77069746 1.4362578.75932843 2.99872141 2.90780209 3.2795738 4.50452074.53148649 3.03199132 3.47154886 5.24433372 6.6231393 4.8025749 1.68511434-.2341854 4.1576819.61207548 5.30419958 1.71913375 1.09319127 1.05560844 2.54900208 1.63752369 4.09369023 1.63752369 1.54468815 0 3.00049896-.58191525 4.09369023-1.6375237 1.14829521-1.10705826 3.60486486-1.95331915 5.30597713-1.71913375 3.13381496.44175883 6.08987526-1.77058357 6.62136174-4.80257489.2808524-1.59671865 1.84331601-3.74519231 3.2795738-4.50452074 2.77652807-1.4707553 3.90882537-4.95692436 2.52767152-7.77069746-.7145738-1.45833637-.7145738-4.1124376-.00177754-5.56899985"/>
    <path fill="rgb(0,125,165)" fill-rule="evenodd" d="M-510.63436633-759.1534581c1.12340956 0 2.03529106.91012963 2.03529106 2.03138096 0 1.12125132-.9118815 2.03138095-2.03529106 2.03138095s-2.03529106-.91012963-2.03529106-2.03138095c0-1.12125133.9118815-2.03138096 2.03529106-2.03138096"/>
  </g>
</svg>
