<svg xmlns="http://www.w3.org/2000/svg" xmlns:xlink="http://www.w3.org/1999/xlink" width="48.103" height="47.411" viewBox="0 0 48.103 47.411">
  <defs>
    <path id="path-7" fill-rule="evenodd" d="M22.20569452 31.20569452c.55191502 0 1 .44808497 1 1 0 .55191502-.44808498 1-1 1-.55191503 0-1-.44808498-1-1 0-.55191503.44808497-1 1-1z"/>
    <mask id="mask-8" x="0" y="0" maskContentUnits="userSpaceOnUse" maskUnits="userSpaceOnUse">
      <rect width="48.103" height="47.411" x="0" y="0" fill="black"/>
      <use fill="white" xlink:href="#path-7"/>
    </mask>
    <path id="path-10" fill-rule="evenodd" d="M33.18918927 14.20484756h.01579524c.48026311 0 .87017582.38991272.87017582.87017583s-.38991271.87017583-.87017582.87017583h-.01579524c-.48026311 0-.87017583-.38991272-.87017583-.87017583s.38991272-.87017583.87017583-.87017583z"/>
    <mask id="mask-11" x="0" y="0" maskContentUnits="userSpaceOnUse" maskUnits="userSpaceOnUse">
      <rect width="48.103" height="47.411" x="0" y="0" fill="black"/>
      <use fill="white" xlink:href="#path-10"/>
    </mask>
    <path id="path-13" fill-rule="evenodd" d="M22.20569452 18.20569452c.55191502 0 1 .44808497 1 1 0 .55191502-.44808498 1-1 1-.55191503 0-1-.44808498-1-1 0-.55191503.44808497-1 1-1z"/>
    <mask id="mask-14" x="0" y="0" maskContentUnits="userSpaceOnUse" maskUnits="userSpaceOnUse">
      <rect width="48.103" height="47.411" x="0" y="0" fill="black"/>
      <use fill="white" xlink:href="#path-13"/>
    </mask>
  </defs>
  <g>
    <g>
      <path fill="rgb(0,125,165)" fill-rule="evenodd" d="M47.27031035 2.95933946l.1270752-.11956787-.1270752-.1218872L45.3643045.82640488l-.11547851-.12072754-.1270752.12072754-5.1520996 5.05615234L23.1389627 3.95689805l-.09240723-.0102539-.05773926.0592041L.82121367 25.82951768l-.11547851.1206665.11547851.12188721 20.78137207 20.51287842.1270752.1206665.1270752-.1206665 22.15600585-21.82476807.06933594-.05810546-.01159668-.08197022L42.12980742 8.0007213l5.14050293-5.04138184zm-9.95751953 11.61560059c0 1.05334472-.41589355 2.04412841-1.17822265 2.78771972-.7508545.74475098-1.75585938 1.15472412-2.81860352 1.15472412-1.07434082 0-2.0793457-.41223144-2.8302002-1.15814209-.76245117-.74475097-1.17822265-1.7366333-1.17822265-2.78997802 0-1.05340577.41577148-2.04412842 1.17822266-2.7888794.75085449-.74365234 1.75585937-1.15362549 2.83020019-1.15362549.5197754 0 1.03955078.1013794 1.5131836.29266358l2.36816406-2.32421875-13.03027344-1.4918213L5.01445097 25.9536632l16.71520997 16.49639893 19.14099121-18.8491211-1.4901123-12.89672851-2.37963868 2.32995605c.20788575.48168945.31188965 1.00323486.31188965 1.54077149zm-3.99682617-.9383545c-.25415039 0-.49682617.09680176-.67004394.27331543l1.33996582.00115967v1.32318115l-.66992188.27337647c.2541504 0 .48510742-.09680176.67004395-.27331543.1730957-.1765747.2770996-.41113281.2770996-.66168213 0-.25054932-.1040039-.48510742-.27722167-.6616211-.18481446-.1776123-.41589356-.27441406-.66992188-.27441406zm-.68164062 1.59655762c.18481445.17767334.42736816.2744751.68151855.2744751l-.68151855-.2744751z"/>
      <path fill="none" stroke="rgb(0,0,0)" stroke-dasharray="0 0 0 0" stroke-linecap="butt" stroke-linejoin="miter" stroke-width=".3" d="M33.98591786 13.91101242c.17327433.17651124.27723893.41110036.27723893.66163243 0 .25053208-.1039646.4851212-.27723893.66163244"/>
      <path fill="none" stroke="rgb(0,0,0)" stroke-dasharray="0 0 0 0" stroke-linecap="butt" stroke-linejoin="miter" stroke-width=".3" d="M33.98591786 15.23427729c-.18482595.17651123-.4158584.27330772-.66999408.27330772"/>
      <path fill="none" stroke="rgb(0,125,165)" stroke-dasharray="0 0 0 0" stroke-linecap="butt" stroke-linejoin="miter" stroke-width=".3" d="M47.2702833 2.9593444l.12706785-.11957212-.12706784-.12184969L45.36426566.82640543l-.11551622-.12071091-.12706785.1207109-5.15202347 5.05619279L23.1389447 3.95691758l-.09241298-.01024904-.05775811.05921667L.82121074 25.82950649l-.11551622.1207109.11551622.1218497 20.7813682 20.51288301.12706785.1207109.12706784-.1207109 22.15601124-21.82476006.06930973-.05807789-.01155162-.08199231-1.94067252-16.61938682 5.14047185-5.04138861z"/>
    </g>
    <path fill="rgb(0,125,165)" fill-rule="evenodd" d="M12.47679746 25.502676l-.17327433.02391443.02310325.16853976.38120353 2.64083583.02310324.16967854.17327433-.0250532 18.4825954-2.61236628.16172271-.02391442-.02310324-.16967855-.38120353-2.63969704-.02310324-.16967854-.17327434.02391443L12.47679746 25.502676z"/>
    <g>
      <path fill="rgb(0,125,165)" fill-rule="evenodd" d="M22.20569452 28.70569452c1.93170258 0 3.5 1.56829741 3.5 3.5 0 1.93170258-1.56829742 3.5-3.5 3.5-1.93170259 0-3.5-1.56829742-3.5-3.5 0-1.93170259 1.56829741-3.5 3.5-3.5z"/>
      <use fill-opacity="0" stroke="rgb(255,255,255)" stroke-linecap="butt" stroke-linejoin="miter" stroke-width="2" mask="url(#mask-8)" xlink:href="#path-7"/>
    </g>
    <g>
      <path fill="rgb(0,125,165)" fill-rule="evenodd" d="M33.16944523 12.029408h.05528332c1.6809209 0 3.0456154 1.3646945 3.0456154 3.04561539 0 1.6809209-1.3646945 3.0456154-3.0456154 3.0456154h-.05528332c-1.6809209 0-3.0456154-1.3646945-3.0456154-3.0456154s1.3646945-3.0456154 3.0456154-3.0456154z"/>
      <use fill-opacity="0" stroke="rgb(255,255,255)" stroke-linecap="butt" stroke-linejoin="miter" stroke-width="2" mask="url(#mask-11)" xlink:href="#path-10"/>
    </g>
    <g>
      <path fill="rgb(0,125,165)" fill-rule="evenodd" d="M22.20569452 15.70569452c1.93170258 0 3.5 1.56829741 3.5 3.5 0 1.93170258-1.56829742 3.5-3.5 3.5-1.93170259 0-3.5-1.56829742-3.5-3.5 0-1.93170259 1.56829741-3.5 3.5-3.5z"/>
      <use fill-opacity="0" stroke="rgb(255,255,255)" stroke-linecap="butt" stroke-linejoin="miter" stroke-width="2" mask="url(#mask-14)" xlink:href="#path-13"/>
    </g>
  </g>
</svg>
