<svg id="Camada_1" data-name="Camada 1" xmlns="http://www.w3.org/2000/svg" viewBox="0 0 226.71 185.37"><defs><style>.cls-1{fill:#000;}</style></defs><path class="cls-1" d="M89.57,195.57C69.79,192.5,55.34,183,47.4,164.31c6.4-.47,12.2-.95,18-1.55.12-.47.23-1,.36-1.53-21.09-7.34-33.88-21-35.77-44.29l18.71,4.38a10.06,10.06,0,0,0,1-1.3c-19.42-16.7-23.92-36.48-13.39-61.11C63.17,89,95.51,105.1,135.43,107.82c0-7.22-1.13-13.85.24-19.89,7.57-35.41,49-49.57,77.09-26.53,3.55,3,6.63,3.55,10.54,2.13,7.46-2.72,14.92-5.45,22.61-8.3-3.18,9.6-9.94,16.47-17.75,22.54.24.58.58,1,.82,1.65,7.35-1.89,14.65-3.67,21.91-5.56.35.35.59.71,1,1.06-6.16,5.92-12.39,11.72-18.24,17.89a13.32,13.32,0,0,0-3.67,7.81c-2.48,52.46-24.39,93.79-71.29,118.54-43.16,22.71-87.56,21.29-131.15-1.09a10.53,10.53,0,0,1-1.53-.95,8.37,8.37,0,0,1-.83-1.42C48.93,216.06,70.72,210.73,89.57,195.57Z" transform="translate(-25.13 -50.17)"/></svg>