<?xml version="1.0" encoding="utf-8"?>
<!-- Generator: Adobe Illustrator 24.0.0, SVG Export Plug-In . SVG Version: 6.00 Build 0)  -->
<svg version="1.1" id="Camada_1" xmlns="http://www.w3.org/2000/svg" xmlns:xlink="http://www.w3.org/1999/xlink" x="0px" y="0px"
	 viewBox="0 0 250.6 215.1" style="enable-background:new 0 0 250.6 215.1;" xml:space="preserve">
<style type="text/css">
	.st0{fill:#FFFFFF;}
</style>
<path class="st0" d="M85.2,160.3c-16.7-2.6-28.9-10.6-35.6-26.4c5.4-0.4,10.3-0.8,15.2-1.3c0.1-0.4,0.2-0.9,0.3-1.3
	c-17.8-6.2-28.6-17.7-30.2-37.4c5.6,1.3,10.7,2.5,15.8,3.7c0.3-0.4,0.6-0.7,0.8-1.1C35.1,82.4,31.3,65.7,40.2,44.9
	c22.7,25.4,50,39,83.7,41.3c0-6.1-1-11.7,0.2-16.8c6.4-29.9,41.4-41.9,65.1-22.4c3,2.5,5.6,3,8.9,1.8c6.3-2.3,12.6-4.6,19.1-7
	c-2.7,8.1-8.4,13.9-15,19c0.2,0.5,0.5,0.9,0.7,1.4c6.2-1.6,12.4-3.1,18.5-4.7c0.3,0.3,0.5,0.6,0.8,0.9c-5.2,5-10.5,9.9-15.4,15.1
	c-1.6,1.7-3,4.3-3.1,6.6c-2.1,44.3-20.6,79.2-60.2,100.1c-36.4,19.2-73.9,18-110.7-0.9c-0.4-0.2-0.9-0.5-1.3-0.8
	c-0.2-0.2-0.3-0.5-0.7-1.2C50.9,177.6,69.3,173.1,85.2,160.3z"/>
</svg>
