<svg xmlns="http://www.w3.org/2000/svg" width="24.687" height="27.729" viewBox="0 0 24.687 27.729">
  <path fill="rgb(0,125,165)" fill-rule="evenodd" d="M16.741333 12.654068c1.61462403-1.31636811 2.67700196-3.31214143 2.67700196-5.56269837C19.41833496 3.18474579 16.23144531 0 12.32226563 0 8.413208 0 5.22631836 3.18474579 5.22631836 7.09136963c0 2.25055694 1.06225586 4.24633026 2.67700195 5.56269836C3.31433105 13.97042847 0 18.17429352 0 23.18495941v3.52445984c0 .55201721.46740723 1.01911926 1.0197754 1.01911926h22.647583c.55236816 0 1.01977539-.46710205 1.01977539-1.01911926v-3.56690979c-.04248047-4.96821594-3.399292-9.172081-7.94580078-10.48844147zM7.22338868 7.09136962c0-2.80257416 2.29455567-5.09559631 5.09887695-5.09559631 2.80444336 0 5.09887696 2.29302215 5.09887696 5.0955963 0 2.8025818-2.2944336 5.09559632-5.09887696 5.09559632-2.84692382 0-5.09887695-2.29301452-5.09887695-5.09559631zm6.4161377 7.09137726h-2.67687989c-4.92895507 0-8.96557617 4.03401184-8.96557617 9.00222778v2.54779053h20.6505127v-2.54779053c0-4.96821594-4.0366211-9.00222778-9.00805664-9.00222778z"/>
</svg>
