<?xml version="1.0" encoding="utf-8"?>
<!-- Generator: Adobe Illustrator 25.1.0, SVG Export Plug-In . SVG Version: 6.00 Build 0)  -->
<svg version="1.1" id="Camada_1" xmlns="http://www.w3.org/2000/svg" xmlns:xlink="http://www.w3.org/1999/xlink" x="0px" y="0px"
	 viewBox="0 0 35.5 32.9" style="enable-background:new 0 0 35.5 32.9;" xml:space="preserve">
<style type="text/css">
	.st0{fill-rule:evenodd;clip-rule:evenodd;fill:#FFFFFF;}
</style>
<path class="st0" d="M25.3,18.4c0,2.2-1.9,3.7-5,3.7c-1.1,0-2.1-0.2-3.1-0.6l0.4-2.4l0.4,0.2c0.8,0.4,1.7,0.6,2.7,0.6
	c0.8,0,1.7-0.3,1.7-1c0-0.5-0.4-0.8-1.5-1.3c-1.1-0.5-2.5-1.4-2.5-2.9c0-2.1,2-3.5,4.9-3.5c0.9,0,1.7,0.1,2.5,0.4l-0.4,2.3l-0.3-0.1
	c-0.7-0.3-1.4-0.4-2.1-0.4c-1.1,0-1.6,0.5-1.6,0.9c0,0.5,0.6,0.8,1.6,1.3C24.5,16.3,25.3,17.2,25.3,18.4z M0.2,11.2
	c3,0.6,5.5,2.6,6.7,5.5l-1-4.8c-0.1-0.6-0.6-1-1.2-0.9H0.2V11.2z M0.2,11.2L0.2,11.2L0.2,11.2L0.2,11.2z M30.8,11.1H33L35.3,22h-2.6
	c0,0-0.3-1.2-0.3-1.6h-3.6c-0.1,0.3-0.6,1.6-0.6,1.6h-3l4.3-9.9C29.6,11.4,30.2,11,30.8,11.1z M17.1,11.1h-2.8L12.4,22h2.8
	L17.1,11.1z M13.2,11.1L8.6,22h-3L3,12.9c1.7,1.1,3,2.6,3.9,4.6l0.3,1.1l2.8-7.4H13.2L13.2,11.1z M30.7,15.1c0,0-0.9,2.4-1.1,3l0,0
	H32c-0.2-0.5-0.8-3.1-0.8-3.1L31,14.1c-0.1,0.2-0.2,0.5-0.2,0.7C30.7,15,30.7,15.1,30.7,15.1z"/>
</svg>
