<svg xmlns="http://www.w3.org/2000/svg" viewBox="0 0 35.5 32.9" style="enable-background:new 0 0 35.5 32.9" xml:space="preserve"><path d="M25.3 18.4c0 2.2-1.9 3.7-5 3.7-1.1 0-2.1-.2-3.1-.6l.4-2.4.4.2c.8.4 1.7.6 2.7.6.8 0 1.7-.3 1.7-1 0-.5-.4-.8-1.5-1.3s-2.5-1.4-2.5-2.9c0-2.1 2-3.5 4.9-3.5.9 0 1.7.1 2.5.4l-.4 2.3-.3-.1c-.7-.3-1.4-.4-2.1-.4-1.1 0-1.6.5-1.6.9 0 .5.6.8 1.6 1.3 1.5.7 2.3 1.6 2.3 2.8zM.2 11.2c3 .6 5.5 2.6 6.7 5.5l-1-4.8c-.1-.6-.6-1-1.2-.9H.2v.2zm0 0zm30.6-.1H33L35.3 22h-2.6s-.3-1.2-.3-1.6h-3.6c-.1.3-.6 1.6-.6 1.6h-3l4.3-9.9c.1-.7.7-1.1 1.3-1zm-13.7 0h-2.8L12.4 22h2.8l1.9-10.9zm-3.9 0L8.6 22h-3L3 12.9c1.7 1.1 3 2.6 3.9 4.6l.3 1.1 2.8-7.4h3.2v-.1zm17.5 4s-.9 2.4-1.1 3H32c-.2-.5-.8-3.1-.8-3.1l-.2-.9c-.1.2-.2.5-.2.7-.1.2-.1.3-.1.3z" style="fill-rule:evenodd;clip-rule:evenodd;fill:#fff"/></svg>